<?xml version="1.0" encoding="UTF-8" standalone="no"?>
<!-- Created with Inkscape (http://www.inkscape.org/) -->

<svg
   id="svg2"
   version="1.1"
   inkscape:version="1.2.2 (732a01da63, 2022-12-09)"
   width="275"
   height="275"
   sodipodi:docname="fgl-badge.svg"
   inkscape:export-filename="/home/spice/Pictures/fgl-badge.png"
   inkscape:export-xdpi="670.25452"
   inkscape:export-ydpi="670.25452"
   xmlns:inkscape="http://www.inkscape.org/namespaces/inkscape"
   xmlns:sodipodi="http://sodipodi.sourceforge.net/DTD/sodipodi-0.dtd"
   xmlns:xlink="http://www.w3.org/1999/xlink"
   xmlns="http://www.w3.org/2000/svg"
   xmlns:svg="http://www.w3.org/2000/svg"
   xmlns:rdf="http://www.w3.org/1999/02/22-rdf-syntax-ns#"
   xmlns:cc="http://creativecommons.org/ns#"
   xmlns:dc="http://purl.org/dc/elements/1.1/">
  <metadata
     id="metadata8">
    <rdf:RDF>
      <cc:Work
         rdf:about="">
        <dc:format>image/svg+xml</dc:format>
        <dc:type
           rdf:resource="http://purl.org/dc/dcmitype/StillImage" />
        <dc:title />
      </cc:Work>
    </rdf:RDF>
  </metadata>
  <defs
     id="defs6" />
  <sodipodi:namedview
     pagecolor="#ffffff"
     bordercolor="#666666"
     borderopacity="1"
     objecttolerance="10"
     gridtolerance="10"
     guidetolerance="10"
     inkscape:pageopacity="0"
     inkscape:pageshadow="2"
     inkscape:window-width="1920"
     inkscape:window-height="1001"
     id="namedview4"
     showgrid="false"
     inkscape:zoom="1"
     inkscape:cx="170"
     inkscape:cy="314.5"
     inkscape:window-x="-9"
     inkscape:window-y="-9"
     inkscape:window-maximized="1"
     inkscape:current-layer="svg2"
     showguides="true"
     inkscape:guide-bbox="true"
     inkscape:showpageshadow="2"
     inkscape:pagecheckerboard="0"
     inkscape:deskcolor="#d1d1d1" />
  <path
     inkscape:connector-curvature="0"
     id="path4017"
     d="m 29.919456,212.73041 7.645592,10.42982 -16.130874,5.70105 z"
     style="fill:#000000;fill-opacity:1;stroke:none;stroke-width:1px;stroke-linecap:butt;stroke-linejoin:miter;stroke-opacity:1" />
  <path
     inkscape:connector-curvature="0"
     id="textPath"
     d="M 38.475949,123.23831 C 51.272575,72.246315 103.03856,41.264883 154.09852,54.039348 c 51.05994,12.77447 82.0785,64.467402 69.28186,115.459402 -12.7966,50.99201 -64.5626,81.97344 -115.62256,69.19897 -51.059953,-12.77447 -82.0785,-64.4674 -69.281871,-115.45941 z"
     style="fill:none;stroke:none;stroke-width:1;stroke-opacity:1" />
  <path
     sodipodi:nodetypes="sssss"
     inkscape:connector-curvature="0"
     id="outerCircle"
     d="M 15.258576,117.81999 C 31.366095,53.547705 96.525576,14.497505 160.79637,30.598935 225.06714,46.700375 264.11118,111.85613 248.00364,176.12844 231.89616,240.40076 166.73665,279.45097 102.46585,263.34953 38.195082,247.24808 -0.84894655,182.0923 15.258576,117.81999 Z"
     style="fill:#000000;fill-opacity:1;stroke:#edcd5c;stroke-width:5;stroke-miterlimit:4;stroke-dasharray:none;stroke-opacity:1" />
  <path
     style="fill:#000000;fill-opacity:1;stroke:#edcd5c;stroke-width:5;stroke-miterlimit:4;stroke-dasharray:none;stroke-opacity:1"
     d="M 40.694017,124.31635 C 53.11023,74.773132 103.33732,44.671935 152.8794,57.083455 202.42144,69.494982 232.51788,119.71922 220.10166,169.26245 207.68548,218.8057 157.45835,248.9069 107.91629,236.49537 58.37424,224.08384 28.277803,173.8596 40.694017,124.31635 Z"
     id="innerCircle"
     inkscape:connector-curvature="0" />
  <g
     id="gear">
    <rect
       style="fill:#edcd5c;fill-opacity:1;stroke:#edcd5c;stroke-width:5;stroke-linecap:butt;stroke-linejoin:miter;stroke-miterlimit:4;stroke-dasharray:none;stroke-opacity:1"
       id="rect3978"
       width="31.107073"
       height="166.06168"
       x="64.044647"
       y="96.540161"
       transform="matrix(0.95198482,-0.30614524,0.30753152,0.95153789,0,0)" />
    <rect
       transform="matrix(-0.88822417,-0.4594103,-0.46070355,0.88755407,0,0)"
       y="-13.088672"
       x="-199.31639"
       height="166.06168"
       width="31.107073"
       id="rect3980"
       style="fill:#edcd5c;fill-opacity:1;stroke:#edcd5c;stroke-width:5;stroke-linecap:butt;stroke-linejoin:miter;stroke-miterlimit:4;stroke-dasharray:none;stroke-opacity:1" />
    <rect
       style="fill:#edcd5c;fill-opacity:1;stroke:#edcd5c;stroke-width:5;stroke-linecap:butt;stroke-linejoin:miter;stroke-miterlimit:4;stroke-dasharray:none;stroke-opacity:1"
       id="rect3982"
       width="31.107073"
       height="166.06168"
       x="-195.30693"
       y="-162.21733"
       transform="matrix(-0.30970967,-0.95083117,-0.95128127,0.30832441,0,0)" />
    <ellipse
       style="fill:#edcd5c;fill-opacity:1;stroke:#edcd5c;stroke-width:0.691353;stroke-opacity:1"
       id="path3994"
       transform="matrix(1.4175817,0,0,1.4758857,-42.397299,-93.388763)"
       cx="122.5"
       cy="162.625"
       rx="51.5"
       ry="49.375" />
    <rect
       transform="matrix(0.45786631,-0.88902106,-0.88835321,-0.45916072,0,0)"
       y="-266.57019"
       x="-85.54731"
       height="166.06168"
       width="31.107073"
       id="rect3984"
       style="fill:#edcd5c;fill-opacity:1;stroke:#edcd5c;stroke-width:5;stroke-linecap:butt;stroke-linejoin:miter;stroke-miterlimit:4;stroke-dasharray:none;stroke-opacity:1" />
    <ellipse
       style="fill:#000000;fill-opacity:1;stroke:#000000;stroke-width:4.84337;stroke-linecap:butt;stroke-linejoin:miter;stroke-miterlimit:4;stroke-dasharray:none;stroke-opacity:1"
       id="path3976"
       transform="matrix(1.0529595,0,0,1.0121212,170.59112,15.177273)"
       cx="-37.125"
       cy="129.75"
       rx="40.125"
       ry="41.25" />
  </g>
  <g
     id="arrow">
    <path
       sodipodi:nodetypes="ccccccccccc"
       inkscape:connector-curvature="0"
       id="path3936"
       d="m 25.761422,202.34772 c -7.565255,10.59573 -15.285211,21.84535 -19.9873103,31.59898 -2.4918058,4.73745 -6.02286083,11.60276 4.5884333,10.81946 54.430816,-7.19643 159.597135,-65.60017 228.216135,-146.521036 3.92383,4.930306 5.99719,10.978986 8.62944,15.714266 18.36733,-32.870364 26.51117,-81.430729 24.56035,-103.258587 -15.92417,16.833542 -34.53031,35.272348 -56.49573,51.449288 l 6.55061,8.255561 C 177.03694,139.97026 88.140382,198.34926 26.561372,228.69707 c -6.411565,2.90797 -6.414658,-1.85002 -3.016054,-7.32649 2.667148,-3.11702 4.926111,-6.99509 8.759052,-11.20365"
       style="fill:#000000;fill-opacity:1;stroke:none" />
    <path
       style="fill:none;stroke:#edcd5c;stroke-width:5;stroke-linecap:butt;stroke-linejoin:miter;stroke-miterlimit:4;stroke-dasharray:none;stroke-opacity:1"
       d="m 5.7741117,233.9467 c -2.4918058,4.73745 -6.02286083,11.60276 4.5884333,10.81946 54.430816,-7.19643 161.215105,-67.46821 229.978045,-148.481353 2.75741,5.549803 4.86562,11.790873 6.67374,17.751593 18.46656,-32.888177 26.70496,-81.507739 24.75414,-103.335597 -15.92417,16.833542 -33.96326,34.588639 -55.92666,50.790483 2.37248,2.366608 4.67981,4.754902 6.80933,7.300959 C 177.82684,138.37213 88.140382,198.34926 26.561372,228.69707 c -6.411565,2.90797 -6.414658,-1.85002 -3.016054,-7.32649 2.667148,-3.11702 3.401081,-4.81059 7.301166,-9.11385 -1.909526,-3.14873 -3.746282,-6.29108 -5.457015,-9.50443 -7.584863,10.60332 -14.913258,21.44077 -19.6153573,31.1944 z"
       id="path4000"
       inkscape:connector-curvature="0"
       sodipodi:nodetypes="cccccccccccc" />
  </g>
  <g
     id="g3969">
    <path
       id="path3965"
       d="m -86.818295,200.04703 c -27.590325,23.36199 -65.796565,16.61146 -87.412425,-13.20761 -15.20904,-20.98086 -17.79489,-49.58449 -6.6311,-73.35028 l 11.23444,9.42627 c -7.34923,17.0248 -5.4159,36.12641 4.47035,51.57849 15.36999,24.02313 44.72659,30.99144 66.954056,14.37977 z"
       style="fill:#000000;fill-opacity:1;stroke:none"
       transform="matrix(1.8903791,0,0,1.7490797,366.52641,-105.80573)"
       inkscape:connector-curvature="0"
       sodipodi:nodetypes="csccscc" />
    <path
       transform="matrix(1.8903791,0,0,1.7490797,366.52641,-105.80573)"
       style="fill:none;fill-opacity:1;stroke:#edcd5c;stroke-width:2.74973;stroke-linecap:butt;stroke-linejoin:miter;stroke-miterlimit:4;stroke-opacity:1"
       d="m -85.135045,198.531 c -27.590325,23.36199 -67.479815,18.12749 -89.095675,-11.69158 -15.20904,-20.98086 -17.79489,-49.58449 -6.6311,-73.35028"
       id="path3957" />
    <path
       transform="matrix(1.1576364,0,0,1.1576373,740.23448,-21.353082)"
       style="fill:none;fill-opacity:1;stroke:#edcd5c;stroke-width:4.31914;stroke-linecap:butt;stroke-linejoin:miter;stroke-miterlimit:4;stroke-opacity:1"
       d="m -481.34941,210.96683 c -36.29666,25.09866 -86.0674,16.02089 -111.16606,-20.27577 -16.14388,-23.34662 -18.69012,-53.50532 -6.68909,-79.22817"
       id="path3959" />
  </g>
  <text
     xml:space="preserve"
     style="font-style:normal;font-variant:normal;font-weight:bold;font-stretch:normal;font-size:25px;line-height:0%;font-family:'Open Sans';-inkscape-font-specification:'Open Sans Bold';letter-spacing:4.06px;word-spacing:58.63px;fill:#ece1b6;fill-opacity:1;stroke:none"
     id="text"
     transform="translate(-0.60015967,0.50022295)"><textPath
       xlink:href="#textPath"
       id="textPath3783"><tspan
         id="tspan3780"
         style="font-size:25px;letter-spacing:4.06px;word-spacing:58.63px;fill:#ece1b6;fill-opacity:1;stroke:none" /></textPath></text>
</svg>
