<?xml version="1.0" standalone="no"?>
<!DOCTYPE svg PUBLIC "-//W3C//DTD SVG 20010904//EN"
 "http://www.w3.org/TR/2001/REC-SVG-20010904/DTD/svg10.dtd">
<svg version="1.0" xmlns="http://www.w3.org/2000/svg"
 width="735.000000pt" height="731.000000pt" viewBox="0 0 735.000000 731.000000"
 preserveAspectRatio="xMidYMid meet">

<g transform="translate(0.000000,731.000000) scale(0.100000,-0.100000)"
fill="#000000" stroke="none">
<path d="M0 3655 l0 -3655 3675 0 3675 0 0 3655 0 3655 -3675 0 -3675 0 0
-3655z m3101 3479 c-28 -60 -55 -129 -60 -154 -17 -71 -61 -409 -62 -475 l-2
-60 -7 55 c-3 30 -6 134 -5 230 l1 175 31 50 c17 28 57 105 89 173 31 67 59
121 61 119 2 -2 -19 -53 -46 -113z m638 -566 c1 -141 10 -374 17 -428 19 -154
79 -390 99 -390 8 0 15 -22 20 -56 4 -30 12 -69 19 -86 l13 -30 36 43 c20 23
39 40 42 37 4 -3 15 -28 26 -54 l20 -49 -6 43 c-3 23 -4 42 -1 42 2 0 13 -28
26 -62 27 -77 193 -413 220 -448 14 -18 20 -20 20 -10 0 9 -4 20 -9 25 -4 6
-11 27 -14 49 -6 35 -5 37 9 20 13 -18 14 -17 8 11 -4 17 -13 53 -21 80 -30
113 -62 306 -65 392 -2 50 -6 89 -10 86 -4 -2 -5 3 -2 11 3 9 -6 63 -21 121
-15 58 -25 110 -23 117 5 15 50 -106 83 -223 34 -120 151 -434 180 -484 13
-22 35 -53 49 -69 14 -16 28 -37 31 -47 4 -11 11 -19 16 -19 5 0 9 -6 9 -14 0
-8 3 -16 8 -18 17 -7 52 -95 46 -114 -4 -10 -4 -16 0 -12 9 7 33 -15 59 -54
21 -33 22 -45 2 -28 -8 7 -15 16 -15 21 0 5 -9 18 -19 28 -16 16 -21 17 -25 5
-3 -8 4 -18 15 -25 11 -6 18 -17 15 -24 -2 -7 1 -16 8 -18 9 -4 13 -25 13 -61
0 -30 5 -68 11 -83 13 -34 47 -272 39 -279 -2 -3 -8 21 -12 53 -10 88 -76 341
-97 373 -10 16 -8 2 18 -170 47 -305 59 -577 29 -626 -26 -43 -150 -145 -162
-133 -6 6 -10 4 -10 -5 0 -8 4 -13 9 -10 4 3 8 2 8 -3 0 -4 -16 -19 -34 -33
-19 -14 -34 -27 -33 -30 2 -7 -90 -125 -129 -167 -39 -40 -60 -41 -149 -8 -82
31 -131 57 -170 90 -38 31 -25 31 59 0 106 -40 168 -30 239 38 45 42 56 68 96
222 19 71 13 155 -20 266 -16 57 -39 134 -49 171 -30 103 -49 146 -177 398
-161 318 -223 473 -223 563 0 22 -4 36 -10 32 -14 -8 -37 55 -55 148 -9 45
-30 146 -46 224 -46 213 -49 287 -30 746 1 9 5 17 10 17 5 0 9 -46 10 -102z
m-119 87 c0 -2 -10 -9 -22 -15 -22 -11 -22 -10 -4 4 21 17 26 19 26 11z m-932
-72 c-7 -16 -17 -33 -24 -38 -8 -8 -9 -26 -3 -68 22 -137 105 -286 223 -398
119 -113 126 -119 126 -112 0 4 10 -3 23 -14 12 -11 41 -30 65 -41 l43 -21 10
26 10 26 32 -29 c83 -77 160 -119 190 -103 9 6 15 14 13 18 -3 5 7 19 22 33
15 14 44 46 65 72 27 32 45 46 63 46 14 0 23 -4 20 -9 -3 -5 1 -25 9 -45 9
-20 13 -42 9 -48 -4 -6 -3 -8 3 -5 15 9 25 -21 17 -47 -4 -12 -3 -18 1 -14 8
8 43 -59 48 -91 2 -9 12 -32 22 -51 23 -42 85 -178 92 -203 6 -19 -54 -83 -93
-97 -17 -7 -25 -22 -35 -63 -11 -51 -10 -57 10 -86 12 -17 20 -31 17 -31 -3 0
5 -20 18 -44 l23 -43 -46 4 c-25 2 -39 0 -31 -4 8 -5 16 -19 18 -33 4 -41 8
-45 60 -59 59 -15 72 -27 82 -79 4 -20 10 -44 14 -53 9 -20 -73 -74 -134 -88
-70 -15 -119 -20 -122 -12 -3 8 -68 24 -68 17 0 -3 18 -36 41 -75 27 -48 47
-71 59 -71 21 0 36 -16 17 -17 -7 -1 -45 -11 -86 -23 -83 -24 -98 -22 -107 15
-4 16 -13 25 -25 25 -12 0 -19 7 -19 18 0 10 -7 27 -15 38 -20 26 -19 40 2 23
15 -12 16 -12 10 4 -3 9 -2 17 3 17 6 0 10 9 10 21 0 11 -4 18 -9 14 -17 -10
-21 12 -5 26 14 11 19 10 35 -10 11 -13 16 -28 11 -35 -4 -6 -5 -33 -1 -61 l6
-50 1 53 c2 42 7 58 25 73 12 11 18 19 12 18 -22 -3 -33 2 -39 17 -5 12 -1 14
15 9 12 -4 19 -3 16 2 -3 5 3 9 13 10 11 1 23 -3 26 -9 5 -7 1 -9 -9 -5 -11 4
-14 2 -10 -9 9 -23 20 -16 42 28 19 38 19 44 6 65 -9 13 -23 22 -33 22 -15 -1
-15 -2 0 -6 9 -2 19 -10 21 -18 7 -17 -3 -55 -14 -55 -12 0 -11 17 2 25 22 14
-21 44 -55 39 -30 -5 -30 -5 6 12 21 9 56 34 78 56 35 33 40 44 35 68 -6 27
-4 29 32 36 21 4 32 9 26 11 -17 6 -84 -17 -101 -34 -7 -7 -19 -13 -25 -13 -8
0 -9 3 -1 8 16 11 17 115 1 153 -8 19 -21 40 -31 48 -10 8 -14 21 -11 32 4 13
0 21 -12 26 -10 4 -21 11 -24 15 -3 5 -60 20 -125 33 -139 28 -237 58 -242 74
-2 6 -8 11 -13 11 -6 0 -7 -4 -4 -10 10 -17 -12 -11 -26 7 -10 12 -11 15 -1 9
7 -4 19 -2 27 4 11 9 15 9 15 1 0 -6 6 -11 14 -11 7 0 19 -7 26 -15 7 -8 17
-15 23 -15 6 0 -3 15 -21 33 -22 22 -30 40 -27 55 2 12 0 20 -4 18 -34 -21
-100 -8 -85 16 4 6 -2 5 -14 -1 -11 -6 -27 -9 -34 -8 -7 2 -9 2 -4 -1 4 -2 2
-8 -5 -13 -11 -7 -10 -9 4 -9 9 0 17 -5 17 -10 0 -7 6 -7 20 0 11 6 20 9 21 8
0 -2 2 -13 3 -24 2 -20 1 -21 -28 -9 -17 8 -44 20 -61 29 -39 21 -45 20 -45
-4 0 -31 29 -82 42 -74 7 4 8 3 4 -4 -4 -6 9 -35 28 -63 28 -42 33 -56 25 -71
-10 -19 -11 -19 -30 -2 -10 9 -22 14 -25 11 -11 -10 35 -120 69 -169 28 -38
34 -43 46 -31 7 8 16 11 20 7 3 -4 0 -9 -6 -11 -7 -3 -13 -9 -13 -14 0 -6 5
-7 12 -3 8 5 9 0 5 -17 -4 -13 -7 -34 -7 -46 0 -35 -18 -27 -24 10 -2 17 -3
-1 -1 -40 1 -40 0 -73 -2 -73 -10 0 -84 177 -122 294 -23 72 -50 136 -59 144
-9 7 -11 11 -4 7 14 -7 17 11 2 20 -5 3 -10 27 -11 53 0 38 -2 43 -9 25 -5
-13 -12 -23 -15 -23 -3 0 -38 25 -78 55 -39 30 -75 55 -79 55 -3 0 -8 -39 -10
-86 -3 -87 5 -116 39 -137 17 -11 67 -96 60 -104 -4 -3 -16 11 -28 31 -11 20
-23 36 -25 36 -2 0 -4 -20 -4 -45 0 -43 1 -45 20 -35 25 14 26 1 1 -42 -14
-23 -23 -70 -31 -161 -7 -70 -18 -153 -26 -185 -8 -31 -16 -65 -19 -74 -3 -16
4 -18 50 -18 29 0 65 4 79 10 21 8 28 5 46 -17 26 -34 25 -49 -5 -77 -26 -24
-89 -34 -242 -38 -29 -1 -50 -5 -47 -9 10 -17 -60 -117 -78 -111 -4 1 -7 -1
-7 -5 5 -33 -7 -46 -73 -79 -43 -21 -82 -34 -96 -31 -12 2 -25 0 -28 -5 -3 -4
-2 -7 3 -6 4 2 27 -3 50 -11 42 -14 42 -14 80 19 31 28 39 31 41 17 4 -21 6
-21 59 -1 47 18 53 17 56 -15 1 -11 7 -21 14 -21 11 0 11 5 2 22 -6 12 -14 36
-16 54 l-4 32 73 12 c40 6 93 18 117 26 24 8 44 13 45 12 1 -2 6 -21 12 -43 8
-33 7 -46 -7 -69 -10 -16 -23 -32 -30 -36 -21 -13 0 -29 49 -36 55 -8 98 -22
70 -23 -14 -1 -18 -10 -18 -40 0 -39 0 -39 -50 -50 -28 -6 -79 -11 -113 -12
l-62 -1 60 -14 c33 -7 96 -21 141 -30 l81 -18 1 -61 c2 -52 -2 -66 -21 -86
-12 -13 -29 -36 -37 -52 -8 -17 -17 -24 -23 -18 -5 5 -16 7 -23 4 -8 -3 -14 0
-14 6 0 6 4 11 10 11 12 0 90 69 90 80 0 13 -29 20 -36 8 -4 -7 -3 -8 4 -4 23
14 11 -13 -14 -33 -45 -35 -75 -23 -34 14 28 25 16 35 -42 35 -59 0 -126 -33
-108 -54 15 -20 1 -26 -41 -20 -42 7 -74 -9 -65 -33 3 -8 -5 -6 -22 7 -15 10
-45 23 -67 28 -22 6 -48 13 -57 17 -10 4 -18 3 -18 -2 0 -16 30 -37 117 -84
45 -24 79 -47 75 -50 -4 -4 -28 -4 -54 0 -27 5 -51 4 -57 -2 -14 -14 -29 -1
-51 43 -11 22 -34 56 -52 75 -23 27 -28 39 -19 48 6 6 11 24 11 39 0 15 5 28
10 28 11 0 12 52 1 90 -4 14 -13 24 -20 22 -7 -1 -21 3 -30 10 -13 10 -14 10
-3 -2 19 -22 14 -46 -14 -59 -19 -8 -30 -9 -39 -1 -16 13 -8 50 10 50 28 0 24
32 -8 71 -28 34 -58 55 -42 29 3 -5 1 -10 -4 -10 -6 0 -11 17 -11 38 0 27 -3
33 -10 22 -5 -8 -10 -28 -10 -45 0 -16 -15 -55 -32 -85 -29 -50 -32 -63 -30
-132 0 -43 -1 -78 -3 -78 -6 0 -24 97 -40 213 -8 63 -17 121 -20 128 -9 23
111 82 158 78 41 -4 72 16 48 30 -8 5 -20 7 -28 4 -7 -3 -13 1 -13 9 0 16 98
103 106 95 8 -7 -38 -51 -66 -63 l-25 -11 23 -12 c30 -16 53 -7 80 28 20 28
21 33 8 75 l-14 45 49 57 c27 32 49 61 49 65 0 4 12 9 28 12 21 4 33 -1 52
-23 23 -26 89 -50 135 -50 24 0 9 17 -22 25 -16 4 -47 22 -71 42 -28 23 -50
33 -62 30 -11 -3 -17 -1 -14 4 3 5 -5 13 -18 18 -13 6 -17 10 -10 10 7 1 12 9
10 19 -2 12 5 18 27 20 44 4 99 30 114 55 46 73 106 399 78 422 -34 28 -47 66
-47 137 0 76 5 91 31 100 31 12 21 232 -16 377 -19 72 -9 82 27 29 43 -64 65
-117 72 -175 4 -29 20 -83 37 -120 17 -38 37 -95 44 -128 l13 -60 1 47 c1 45
-6 84 -35 189 -9 33 -9 59 -2 93 10 49 14 52 38 35 13 -9 13 -10 -2 -6 -24 8
-30 -20 -11 -50 l17 -26 12 29 c7 16 10 33 6 38 -3 5 2 6 11 3 10 -4 23 -9 30
-12 10 -4 16 14 25 69 6 41 18 93 26 116 l14 42 -60 60 c-63 64 -109 128 -195
267 -67 108 -66 113 21 209 36 39 39 40 24 5z m309 -70 c-3 -10 -5 -4 -5 12 0
17 2 24 5 18 2 -7 2 -21 0 -30z m52 -154 c13 -10 32 -19 42 -19 23 0 25 -15 4
-24 -16 -6 -21 -41 -6 -50 4 -3 6 -28 3 -56 -3 -32 0 -55 8 -65 7 -9 11 -18 8
-20 -8 -9 -49 55 -42 67 4 7 3 8 -4 4 -11 -6 -16 6 -13 27 0 4 -3 7 -7 7 -13
0 -30 87 -36 180 l-5 85 12 -58 c8 -40 20 -65 36 -78z m-699 66 c7 -8 31 -18
54 -22 25 -4 51 -17 66 -32 52 -54 125 -157 126 -177 1 -22 22 -57 79 -129 54
-68 49 -73 -9 -10 -31 33 -56 55 -56 50 0 -6 14 -26 31 -44 23 -25 30 -44 31
-73 0 -21 -2 -41 -5 -44 -8 -8 -87 78 -87 96 -4 129 -10 154 -52 208 -23 29
-62 74 -87 98 -36 36 -51 45 -76 43 -17 -2 -36 0 -42 4 -15 9 -70 -39 -108
-93 -15 -22 -30 -38 -32 -36 -8 8 74 122 107 150 36 30 43 31 60 11z m960 -35
c8 -5 11 -10 5 -10 -5 0 -17 5 -25 10 -8 5 -10 10 -5 10 6 0 17 -5 25 -10z
m-346 -86 c-4 -17 -11 -23 -22 -19 -12 4 -13 3 -3 -9 8 -10 9 -21 3 -32 -8
-14 -14 -9 -45 28 -42 51 -49 73 -13 39 29 -28 41 -22 57 26 11 35 12 36 20
14 5 -12 6 -34 3 -47z m-185 -509 c3 -17 2 -17 -13 -3 -19 20 -21 31 -3 26 6
-3 14 -13 16 -23z m166 -275 c-3 -5 -11 -10 -16 -10 -6 0 -7 5 -4 10 3 6 11
10 16 10 6 0 7 -4 4 -10z m1938 -56 c56 -31 109 -57 117 -59 45 -9 240 -128
311 -190 173 -150 251 -309 265 -539 l5 -81 -33 65 c-51 99 -140 246 -201 331
-30 43 -56 82 -58 88 -7 20 -244 254 -299 294 -30 23 -93 65 -139 94 -46 29
-81 53 -77 53 4 0 53 -25 109 -56z m-291 -294 c115 -264 152 -356 182 -455 15
-49 36 -112 46 -140 26 -69 45 -142 70 -267 l22 -106 -51 -104 c-59 -119 -143
-244 -161 -240 -15 3 -40 -16 -40 -32 0 -6 7 -2 15 8 8 11 15 16 15 10 -1 -11
-36 -54 -45 -54 -3 0 -3 6 1 13 5 8 3 8 -9 -2 -9 -7 -14 -18 -11 -23 7 -11
-76 -99 -87 -92 -4 2 -17 -8 -29 -23 -29 -37 -112 -106 -180 -150 -30 -19 -67
-47 -82 -61 -15 -14 -30 -23 -33 -20 -3 3 11 20 32 38 100 87 173 162 167 172
-4 6 -3 8 4 5 28 -18 380 449 369 490 -4 15 -5 15 -6 -3 0 -11 -7 -29 -15 -40
-13 -17 -13 -14 -4 26 5 25 16 67 24 94 8 26 14 81 14 122 0 73 -31 262 -52
312 -6 15 -10 35 -9 46 2 12 -1 16 -9 11 -9 -5 -10 -1 -5 14 3 11 1 29 -5 38
-9 15 -10 14 -4 -7 7 -26 -2 -23 -20 9 -47 80 -46 79 -30 85 12 5 15 2 10 -9
-3 -9 -2 -13 4 -10 5 3 7 0 4 -8 -3 -8 2 -20 11 -27 20 -16 19 -11 -6 52 -12
29 -32 89 -44 133 -13 44 -53 152 -89 239 -36 87 -66 162 -66 165 0 17 35 -54
102 -209z m-2597 100 c4 -6 43 -29 88 -51 92 -45 181 -108 198 -140 10 -20 8
-106 -7 -263 -6 -54 -5 -58 9 -44 8 8 15 23 14 34 -1 10 4 18 11 16 6 -1 12 3
12 9 0 5 5 7 11 3 8 -4 9 1 5 17 -6 22 -6 22 5 5 10 -16 9 -22 -7 -33 -12 -9
-13 -13 -4 -13 7 0 10 -3 7 -6 -4 -4 -14 -1 -23 7 -15 12 -16 12 -10 -7 4 -14
1 -26 -9 -34 -8 -7 -12 -16 -9 -21 3 -5 2 -9 -3 -9 -4 0 -22 29 -38 63 -17 34
-36 61 -43 60 -6 -2 -19 12 -27 30 -14 28 -14 30 0 13 8 -11 15 -24 15 -30 0
-5 3 -7 6 -4 9 9 -117 229 -127 222 -5 -3 -6 3 -2 12 5 13 3 15 -7 9 -8 -5
-11 -4 -7 3 4 5 3 21 -2 34 -6 13 -10 16 -11 8 0 -13 -1 -13 -10 0 -13 20 -13
33 0 25 15 -9 12 6 -5 24 -61 67 -63 71 -46 71 6 0 13 -5 16 -10z m1225 -74
c8 -1 24 -6 34 -11 13 -6 21 -5 24 3 2 8 8 8 22 0 17 -11 15 -14 -27 -30 -47
-18 -87 -17 -150 3 -18 6 -33 14 -33 19 0 13 37 22 60 15 12 -4 20 -2 20 5 0
8 7 9 18 5 9 -4 24 -8 32 -9z m-510 -80 c-6 -8 -18 -12 -27 -9 -8 3 -19 0 -25
-8 -8 -12 -9 -11 -5 1 2 8 17 18 33 21 16 4 31 7 33 8 2 0 -2 -5 -9 -13z m15
-33 c-4 -10 -10 -28 -12 -40 -3 -13 -9 -20 -14 -17 -13 8 -11 48 3 62 18 18
31 15 23 -5z m-42 -96 c-4 -17 -23 -14 -23 4 0 6 5 7 12 3 8 -5 9 -2 4 12 -9
23 -9 22 -6 59 2 25 4 23 10 -15 5 -25 6 -53 3 -63z m-368 43 c3 -5 1 -10 -4
-10 -6 0 -11 5 -11 10 0 6 2 10 4 10 3 0 8 -4 11 -10z m-174 -62 c10 -21 17
-38 15 -38 -6 0 -56 87 -56 97 0 10 15 -12 41 -59z m618 48 c-2 -2 -17 -6 -34
-10 -22 -5 -26 -4 -15 4 14 9 59 15 49 6z m258 -18 c-3 -8 -6 -5 -6 6 -1 11 2
17 5 13 3 -3 4 -12 1 -19z m-687 -8 c0 -11 -2 -20 -4 -20 -2 0 -6 9 -9 20 -3
11 -1 20 4 20 5 0 9 -9 9 -20z m2383 -40 l6 -55 -14 43 c-8 24 -11 50 -8 58 8
21 10 16 16 -46z m453 3 c-9 -77 -25 -135 -35 -128 -5 2 -12 21 -16 41 -5 28
-2 41 13 58 11 11 23 36 27 54 11 53 18 36 11 -25z m-2417 23 c1 7 9 15 19 18
16 7 16 6 1 -10 -13 -13 -15 -23 -8 -48 5 -17 15 -35 22 -41 8 -5 22 -35 31
-65 9 -30 22 -63 27 -73 6 -11 8 -22 5 -25 -3 -3 -6 0 -6 7 0 7 -6 11 -14 8
-9 -4 -13 3 -14 21 0 54 -2 62 -25 84 -19 20 -35 61 -53 133 l-4 20 9 -20 c5
-11 10 -15 10 -9z m-442 -8 c-3 -8 -6 -5 -6 6 -1 11 2 17 5 13 3 -3 4 -12 1
-19z m416 2 c3 -11 1 -20 -4 -20 -5 0 -9 9 -9 20 0 11 2 20 4 20 2 0 6 -9 9
-20z m77 -25 c0 -37 -13 -47 -24 -19 -8 20 2 54 15 54 5 0 9 -16 9 -35z m537
19 c-3 -3 -12 -4 -19 -1 -8 3 -5 6 6 6 11 1 17 -2 13 -5z m1609 -31 c17 -24
20 -32 8 -20 -12 9 -24 14 -29 10 -4 -5 -5 -2 -1 5 4 7 2 19 -4 27 -7 8 -10
15 -7 15 2 0 17 -17 33 -37z m-2602 -23 c-5 -5 -9 4 -10 23 -1 30 -1 30 9 9 6
-14 7 -26 1 -32z m558 13 c6 -42 4 -48 -11 -38 -13 8 -15 75 -2 75 5 0 11 -17
13 -37z m1748 -3 c0 -5 -4 -10 -10 -10 -5 0 -10 5 -10 10 0 6 5 10 10 10 6 0
10 -4 10 -10z m-1963 -32 c-3 -8 -6 -5 -6 6 -1 11 2 17 5 13 3 -3 4 -12 1 -19z
m702 18 c-18 -17 -100 -33 -139 -26 l-45 8 55 0 c30 0 66 5 80 10 25 11 57 16
49 8z m68 -28 c-3 -8 -6 -5 -6 6 -1 11 2 17 5 13 3 -3 4 -12 1 -19z m1198 12
c3 -5 1 -18 -5 -27 -11 -17 -11 -17 -6 0 3 9 1 17 -4 17 -6 0 -10 5 -10 10 0
13 17 13 25 0z m-2285 -20 c0 -5 -2 -10 -4 -10 -3 0 -8 5 -11 10 -3 6 -1 10 4
10 6 0 11 -4 11 -10z m1040 0 c-20 -13 -43 -13 -35 0 3 6 16 10 28 10 18 0 19
-2 7 -10z m-1040 -40 c0 -11 -4 -20 -9 -20 -5 0 -7 9 -4 20 3 11 7 20 9 20 2
0 4 -9 4 -20z m415 10 c3 -5 -1 -10 -9 -10 -9 0 -16 5 -16 10 0 6 4 10 9 10 6
0 13 -4 16 -10z m503 3 c-10 -2 -26 -2 -35 0 -10 3 -2 5 17 5 19 0 27 -2 18
-5z m75 0 c3 -5 -9 -9 -26 -10 -26 -1 -28 0 -12 7 26 11 33 12 38 3z m569 -15
c9 -1 15 -5 13 -9 -3 -3 7 -12 20 -19 38 -20 37 -36 -3 -56 -20 -11 -42 -24
-49 -31 -15 -13 -52 -27 -59 -21 -2 2 -7 37 -10 77 l-7 74 39 -7 c21 -4 47 -7
56 -8z m-1225 -30 c-3 -8 -6 -5 -6 6 -1 11 2 17 5 13 3 -3 4 -12 1 -19z m628
-38 c3 -5 1 -10 -4 -10 -6 0 -11 5 -11 10 0 6 2 10 4 10 3 0 8 -4 11 -10z
m-990 -15 c16 20 16 20 5 -2 -6 -13 -14 -23 -18 -23 -11 0 -32 22 -32 34 0 5
6 1 14 -10 15 -19 15 -19 31 1z m413 -20 c-3 -3 -9 2 -12 12 -6 14 -5 15 5 6
7 -7 10 -15 7 -18z m25 -6 c-9 -9 -12 -7 -10 9 1 14 5 18 11 12 7 -7 6 -14 -1
-21z m-482 -35 c-9 -12 -18 -20 -20 -18 -2 2 1 10 8 17 6 8 8 23 4 33 -6 16
-5 17 9 4 14 -13 14 -17 -1 -36z m537 15 c-3 -8 -7 -3 -11 10 -4 17 -3 21 5
13 5 -5 8 -16 6 -23z m906 16 c-4 -8 -11 -15 -16 -15 -6 0 -5 6 2 15 7 8 14
15 16 15 2 0 1 -7 -2 -15z m-1654 1 c0 -2 3 -13 6 -23 6 -17 6 -17 -8 1 -13
16 -14 15 -10 -18 2 -20 9 -36 14 -36 6 0 8 -10 5 -22 -4 -13 -2 -49 2 -81 5
-40 4 -56 -3 -54 -6 2 -10 14 -8 26 3 21 -14 158 -24 194 -4 11 0 17 10 17 9
0 16 -2 16 -4z m809 -45 c24 -9 24 -9 4 -10 -21 -1 -54 33 -52 54 0 5 5 0 11
-12 6 -12 22 -27 37 -32z m2168 12 c-13 -13 -17 -14 -17 -3 0 7 -3 10 -7 6 -5
-4 -8 -11 -8 -14 0 -4 -17 -24 -37 -45 -38 -39 -108 -146 -108 -166 0 -28 -21
-6 -34 37 -8 26 -17 55 -21 65 -6 15 -3 17 19 13 14 -3 26 0 26 5 0 5 8 9 18
9 10 0 29 11 42 25 13 14 30 25 37 25 8 0 12 4 9 8 -9 16 78 68 93 55 3 -2 -3
-11 -12 -20z m-2257 -13 c0 -5 -2 -10 -4 -10 -3 0 -8 5 -11 10 -3 6 -1 10 4
10 6 0 11 -4 11 -10z m171 -46 c9 -18 33 -74 52 -125 20 -52 39 -103 43 -113
5 -13 4 -17 -4 -13 -6 4 -13 20 -17 36 -3 16 -13 35 -21 42 -19 16 -41 54 -25
45 6 -4 11 -3 11 3 0 5 -5 13 -10 16 -6 4 -8 10 -5 15 3 4 2 15 -1 24 -5 14
-9 14 -23 4 -13 -10 -14 -10 -3 2 18 21 14 32 -8 20 -16 -9 -18 -8 -14 5 4 8
1 15 -7 15 -7 0 -9 3 -6 6 4 4 13 1 22 -6 28 -23 17 9 -12 37 -23 21 -24 25
-9 22 11 -2 27 -18 37 -35z m-831 -26 c0 -17 -10 -6 -25 25 l-16 32 20 -25
c11 -14 21 -28 21 -32z m757 16 c-3 -3 -12 -4 -19 -1 -8 3 -5 6 6 6 11 1 17
-2 13 -5z m-795 -26 c-7 -7 -12 -8 -12 -2 0 14 12 26 19 19 2 -3 -1 -11 -7
-17z m731 -11 c-3 -5 3 -7 12 -5 11 2 19 -4 20 -14 3 -19 -9 -15 -48 14 -18
13 -17 14 2 14 11 0 17 -4 14 -9z m-716 -29 c-3 -8 -6 -5 -6 6 -1 11 2 17 5
13 3 -3 4 -12 1 -19z m823 -8 c0 -5 -4 -10 -10 -10 -5 0 -10 5 -10 10 0 6 5
10 10 10 6 0 10 -4 10 -10z m20 -35 c-7 -8 -16 -15 -21 -15 -5 0 -1 8 9 18 20
22 31 19 12 -3z m-888 -67 c-8 -8 -9 -4 -5 13 4 13 8 18 11 10 2 -7 -1 -18 -6
-23z m3593 -75 c-2 -8 -1 -12 4 -9 10 6 25 -24 16 -32 -3 -3 -5 1 -5 8 0 7 -3
11 -6 8 -3 -4 2 -20 11 -37 18 -35 31 -43 15 -8 -11 21 -10 21 4 3 9 -11 16
-31 17 -45 1 -26 3 -39 14 -76 5 -16 -1 -23 -25 -34 -17 -7 -29 -15 -27 -18 3
-2 21 4 41 13 36 18 36 18 78 -13 24 -17 53 -33 66 -37 12 -4 22 -11 22 -16 0
-5 -10 -19 -22 -31 -13 -12 -17 -19 -10 -15 16 9 15 -5 -1 -29 -13 -17 -15
-17 -30 6 -24 34 -22 53 6 46 21 -6 21 -6 3 8 -14 11 -22 12 -27 4 -4 -7 -15
0 -30 20 -17 23 -31 31 -53 31 -34 0 -102 19 -126 35 -20 13 -42 64 -34 77 4
7 2 8 -4 4 -7 -4 -17 3 -23 18 -16 34 -33 38 -60 15 -19 -17 -47 -24 -72 -20
-14 2 -68 -40 -62 -49 3 -5 1 -11 -5 -15 -5 -3 -10 -1 -10 4 0 6 -6 11 -12 11
-9 0 -12 16 -10 54 l4 54 137 62 c75 34 147 70 161 80 l24 18 18 -41 c10 -22
16 -47 13 -54z m90 -93 c3 -5 1 -10 -4 -10 -6 0 -11 5 -11 10 0 6 2 10 4 10 3
0 8 -4 11 -10z m-235 -19 c0 -4 -19 -16 -42 -27 -60 -26 -104 -62 -85 -70 22
-8 48 -12 82 -13 23 -1 26 -4 15 -11 -17 -11 -16 -12 34 -37 21 -11 35 -22 30
-24 -11 -6 -95 36 -95 48 0 4 -9 7 -20 6 -10 -2 -19 1 -19 6 0 5 -10 11 -22
13 -12 2 -28 14 -34 27 -11 21 -10 27 11 43 25 20 40 24 30 8 -3 -5 -2 -10 4
-10 5 0 13 5 16 10 3 6 14 10 24 10 10 0 26 9 36 20 17 18 35 19 35 1z m278
-41 c2 -30 0 -33 -10 -19 -7 9 -19 14 -25 12 -7 -3 -13 0 -13 5 0 6 -3 18 -6
27 -6 13 -1 16 22 13 25 -3 29 -8 32 -38z m36 4 c9 -22 8 -26 -6 -22 -13 5
-20 38 -8 38 4 0 11 -7 14 -16z m-522 -41 c9 -8 21 -12 27 -9 5 4 13 0 18 -7
11 -19 73 -48 87 -40 6 3 8 3 4 -2 -7 -7 17 -28 84 -73 16 -10 25 -22 21 -25
-3 -4 -1 -7 5 -7 6 0 13 8 16 18 7 20 59 74 56 57 -6 -28 1 -33 40 -28 43 6
49 -2 28 -40 -20 -35 -30 -37 -61 -11 -16 14 -35 23 -41 21 -15 -5 -8 -139 8
-149 6 -4 7 -8 3 -8 -15 0 -52 23 -90 56 -43 39 -72 46 -37 9 16 -17 19 -25 9
-25 -20 1 -50 26 -41 35 4 5 2 5 -4 2 -14 -8 -96 23 -107 40 -4 7 -14 13 -21
13 -6 0 -27 16 -46 35 -30 31 -59 48 -46 27 3 -5 -2 -9 -10 -9 -10 0 -11 4 -5
10 7 7 7 17 0 29 -10 19 -11 19 -26 1 -8 -10 -12 -12 -8 -5 10 20 -14 14 -49
-13 -61 -46 -48 -25 21 33 113 97 123 101 165 65z m666 -52 c37 -5 110 -15
162 -22 118 -16 89 -26 -79 -28 -105 -1 -117 1 -138 21 -22 20 -30 38 -17 38
3 0 35 -4 72 -9z m-4202 -73 c-19 -39 -21 -63 -24 -251 -3 -185 -5 -209 -20
-214 -25 -9 -146 -89 -159 -105 -6 -7 -20 -30 -32 -50 -25 -47 -24 -52 58
-230 42 -93 38 -112 -14 -58 -16 17 -51 45 -78 62 -46 30 -48 30 -62 12 -8
-11 -15 -26 -15 -36 0 -9 -20 -40 -43 -70 -41 -49 -231 -302 -269 -357 -10
-14 -20 -22 -23 -20 -3 3 50 86 116 184 192 283 246 387 259 502 5 43 14 91
20 107 6 16 15 49 21 75 23 106 101 330 128 371 25 38 129 120 151 120 4 0 -2
-19 -14 -42z m3394 3 c0 -22 45 -55 65 -47 8 3 12 0 9 -8 -3 -7 7 -18 21 -26
14 -7 25 -17 25 -22 0 -5 -11 -1 -25 8 -36 24 -53 7 -21 -23 l26 -24 -26 -52
-27 -52 -52 57 -51 57 -53 -8 c-29 -4 -65 -18 -80 -29 l-29 -21 -6 41 c-6 34
-3 45 13 61 10 11 27 20 38 21 30 3 73 28 73 43 0 7 8 13 18 13 9 0 26 7 36
15 27 20 46 19 46 -4z m1385 -78 c38 -49 60 -81 48 -73 -129 94 -209 141 -273
162 -8 3 23 4 70 2 l85 -3 70 -88z m-945 9 c0 -15 -2 -15 -10 -2 -13 20 -13
33 0 25 6 -3 10 -14 10 -23z m-166 -61 c19 -16 68 -32 61 -21 -3 6 -2 10 4 10
5 0 13 -20 17 -45 3 -25 10 -48 15 -51 5 -3 6 -10 3 -16 -5 -8 5 -9 33 -5 30
5 44 3 53 -8 7 -9 10 -18 6 -22 -3 -4 -13 2 -22 13 -15 17 -15 17 -1 -7 15
-25 14 -30 -13 -85 -16 -33 -30 -54 -30 -49 0 6 -6 3 -13 -5 -16 -20 -62 -40
-92 -40 -13 0 -27 -4 -30 -10 -7 -12 -95 -14 -96 -2 0 4 -2 20 -4 36 -2 16 3
45 12 65 10 20 19 41 21 46 3 6 -4 2 -16 -8 -23 -21 -28 -19 -82 37 l-29 29
19 46 c10 25 28 67 39 93 l21 47 57 -20 c31 -10 61 -23 67 -28z m186 16 c0 -7
-4 -6 -10 3 -8 13 -10 12 -10 -4 0 -11 -3 -17 -6 -13 -4 3 -4 13 0 22 6 18 26
11 26 -8z m-2069 -9 c7 -13 22 -35 35 -50 31 -39 96 -176 92 -196 -3 -13 -14
-17 -51 -16 -52 0 -59 -6 -23 -26 13 -7 51 -45 83 -86 32 -40 63 -73 70 -74
34 -1 66 25 103 84 37 58 45 65 83 72 57 10 59 10 162 33 50 11 135 26 190 35
55 9 114 19 130 22 l30 6 -29 -16 c-77 -43 -105 -57 -158 -80 -48 -20 -56 -28
-51 -45 4 -16 -8 -33 -51 -73 -52 -49 -57 -58 -71 -123 -8 -38 -15 -82 -15
-98 0 -25 3 -27 28 -21 54 13 7 -13 -63 -34 -192 -59 -286 -76 -407 -74 -65 1
-118 -2 -118 -7 0 -4 27 -15 60 -24 60 -17 66 -27 39 -63 -5 -6 6 -24 29 -46
23 -22 46 -59 61 -99 13 -35 33 -78 43 -95 10 -17 18 -38 18 -45 -1 -8 -8 0
-17 16 -8 17 -24 40 -35 52 -11 12 -17 26 -13 33 3 6 2 9 -4 8 -5 -2 -71 55
-146 126 -205 194 -308 282 -518 440 -236 179 -253 193 -246 200 3 3 41 -12
83 -33 42 -22 82 -38 89 -36 14 6 112 -78 112 -96 0 -7 28 -32 63 -55 34 -24
98 -70 142 -104 76 -58 103 -74 83 -47 -6 6 -22 41 -36 77 -14 36 -47 110 -72
164 -36 77 -44 101 -33 107 18 12 30 11 23 -1 -4 -6 1 -7 11 -3 10 4 20 0 26
-10 5 -10 16 -17 23 -17 8 0 15 -6 16 -12 0 -13 50 -55 157 -135 56 -42 82
-52 82 -33 0 11 -44 81 -84 133 -29 38 -31 39 -88 35 -32 -2 -58 0 -58 5 0 4
11 7 24 7 33 0 57 10 50 21 -6 11 8 12 22 2 5 -5 1 0 -9 10 -19 17 -19 17 6
17 24 0 25 2 21 58 -2 31 -8 73 -14 92 -14 50 -13 80 5 80 8 0 29 13 47 30 40
36 54 37 69 8z m2076 -30 c-3 -8 -6 -5 -6 6 -1 11 2 17 5 13 3 -3 4 -12 1 -19z
m-2950 -3 c0 -8 -4 -12 -9 -9 -5 3 -6 10 -3 15 9 13 12 11 12 -6z m3086 -75
c-3 -8 -5 -30 -4 -48 2 -34 -17 -42 -27 -12 -3 7 0 10 7 6 6 -4 11 -3 11 1 0
5 -10 14 -21 22 -19 11 -21 11 -16 -4 4 -9 3 -14 -3 -10 -6 3 -10 28 -10 55
l0 49 35 -22 c22 -14 32 -27 28 -37z m-113 24 c0 -2 -9 0 -20 6 -11 6 -20 13
-20 16 0 2 9 0 20 -6 11 -6 20 -13 20 -16z m-2950 -9 c14 -19 14 -19 -2 -6
-10 7 -18 18 -18 24 0 6 1 8 3 6 1 -2 9 -13 17 -24z m-591 -180 c18 -60 44
-145 58 -189 l25 -78 -28 -25 c-19 -16 -25 -26 -16 -29 16 -7 16 -31 -1 -37
-8 -3 -14 -25 -16 -58 -3 -66 -7 -71 -20 -28 -8 27 -9 15 -5 -56 l5 -90 -36
58 c-35 54 -55 71 -55 45 0 -22 -33 -48 -60 -48 -24 0 -30 -7 -48 -52 -12 -29
-24 -64 -27 -78 -7 -31 -48 -62 -43 -33 6 37 -30 21 -101 -44 -44 -40 -76 -63
-79 -55 -4 14 -6 13 -210 -153 -167 -136 -215 -174 -254 -200 -41 -26 -34 -11
10 22 49 35 121 95 187 153 28 25 73 63 100 85 27 22 77 65 111 95 115 103
168 141 192 137 17 -3 22 0 22 19 0 14 23 47 63 88 48 51 67 64 83 60 18 -5
22 0 29 32 3 21 17 51 30 66 48 56 59 117 51 282 -4 83 -13 182 -21 221 -8 38
-15 72 -14 75 2 15 40 -89 68 -185z m3047 138 c41 -21 74 -41 74 -45 0 -3 -29
-20 -64 -37 -35 -17 -67 -35 -71 -40 -3 -6 -50 -43 -103 -83 -96 -71 -202
-153 -317 -246 -33 -27 -123 -98 -200 -157 -77 -60 -191 -151 -253 -202 -62
-51 -118 -93 -123 -93 -5 0 -43 -33 -84 -74 -41 -40 -75 -71 -75 -69 0 2 7 18
16 35 19 36 413 434 426 430 5 -1 7 2 3 8 -3 5 9 26 27 46 18 20 37 42 41 50
5 8 13 11 19 8 6 -4 8 -3 5 3 -7 10 39 60 51 56 4 -2 7 3 7 10 1 6 6 11 13 9
7 -1 11 2 10 7 -2 5 76 87 172 181 180 178 264 240 324 240 16 0 62 -17 102
-37z m-2379 -79 c18 -11 33 -23 33 -27 0 -5 -15 1 -32 13 -18 11 -66 38 -105
58 -40 20 -73 40 -73 45 0 8 81 -33 177 -89z m-449 45 c-3 -8 -7 -3 -11 10 -4
17 -3 21 5 13 5 -5 8 -16 6 -23z m3525 -33 c-4 -5 1 -7 10 -3 10 3 17 5 17 3
0 -3 3 -11 6 -19 4 -10 -4 -16 -26 -19 -28 -4 -31 -3 -25 16 4 12 7 30 6 41 0
16 2 17 9 5 5 -8 6 -18 3 -24z m-3353 5 c0 -5 -7 -12 -16 -15 -14 -5 -15 -4
-4 9 14 17 20 19 20 6z m-135 -19 c5 0 11 -6 13 -12 3 -7 -7 -6 -27 4 -17 9
-31 19 -31 22 0 2 8 0 18 -5 9 -5 21 -9 27 -9z m3323 -17 c-3 -14 -1 -25 6
-25 11 0 -14 -20 -26 -20 -3 0 -1 16 5 35 12 40 22 47 15 10z m-2613 -86 c14
-28 25 -53 22 -55 -2 -2 -20 14 -40 34 -26 26 -36 44 -31 55 10 27 20 20 49
-34z m2411 -94 c3 -20 12 -35 20 -35 8 0 14 -5 14 -11 0 -5 -5 -7 -11 -3 -7 4
-9 0 -6 -12 3 -11 11 -38 18 -62 9 -30 15 -39 22 -30 6 9 7 8 3 -5 -8 -23 24
-96 53 -121 26 -24 27 -56 1 -106 -22 -42 -19 -92 7 -122 35 -40 2 -33 -67 14
-140 94 -144 101 -159 263 -11 112 -28 206 -46 248 -6 15 0 17 68 17 l76 0 7
-35z m553 -296 c6 -18 11 -33 11 -34 0 -1 -29 -3 -65 -3 l-66 -1 30 24 c35 30
53 34 20 4 l-24 -21 25 7 c14 4 33 7 43 6 9 0 17 5 17 10 0 6 -4 8 -9 5 -10
-7 -23 19 -14 28 13 12 21 5 32 -25z m-2984 1 c-4 -6 7 -10 24 -10 19 0 84
-27 162 -67 116 -61 133 -72 150 -108 17 -33 19 -36 16 -12 -5 35 -2 34 17 -5
18 -36 23 -74 6 -48 -6 10 -10 11 -10 2 0 -6 -6 -11 -12 -10 -18 4 -11 -44 7
-55 8 -4 15 -16 14 -25 0 -11 -3 -12 -6 -4 -2 6 -9 10 -13 7 -13 -8 1 -79 17
-88 7 -4 13 -16 12 -25 0 -14 -2 -13 -9 3 -7 17 -9 16 -10 -10 -1 -16 -1 -40
0 -52 1 -18 -8 -24 -47 -36 -26 -8 -39 -15 -27 -16 12 -1 35 4 52 10 27 9 32
18 47 80 10 38 21 69 26 69 5 0 15 -26 24 -57 8 -32 22 -80 30 -108 21 -75 43
-218 50 -325 3 -52 8 -106 11 -120 5 -24 5 -24 -10 -5 -8 11 -16 28 -16 38 0
9 -10 32 -22 50 l-21 33 -221 12 c-122 7 -283 12 -358 12 -75 0 -148 4 -162 9
-13 6 -26 7 -28 2 -2 -4 -22 -5 -45 -3 -24 2 -40 8 -37 13 2 5 -2 32 -11 61
-8 29 -12 54 -7 56 12 4 3 380 -10 425 -12 39 -7 56 30 105 19 25 8 26 142 -8
55 -14 87 4 136 77 21 32 45 64 53 71 13 10 13 16 3 32 -14 22 -3 27 17 8 11
-11 12 -10 6 1 -4 8 -2 17 6 22 19 12 32 11 24 -1z m1755 -34 c0 -21 -77 -65
-102 -59 -15 5 -7 12 39 39 32 18 59 33 61 33 1 1 2 -5 2 -13z m-2591 -62 c12
-20 21 -42 19 -49 -2 -7 -13 9 -25 36 -26 58 -23 63 6 13z m122 -21 c13 -16
12 -17 -3 -4 -10 7 -18 15 -18 17 0 8 8 3 21 -13z m3408 -96 c-23 -40 -48 -82
-56 -94 -18 -30 -41 -29 -49 2 -5 22 5 37 67 103 41 43 76 74 77 69 2 -4 -15
-40 -39 -80z m-3446 -7 c5 -8 -2 -3 -16 12 -16 17 -27 23 -30 15 -2 -7 -4 0
-4 15 l0 28 20 -28 c11 -15 25 -34 30 -42z m2796 31 c8 -5 10 -14 6 -21 -5 -8
-4 -11 2 -7 5 3 16 -9 25 -26 35 -70 60 -64 -292 -63 -175 1 -316 3 -314 5 2
3 39 10 82 17 42 7 104 19 137 28 33 8 70 15 83 16 13 0 43 9 67 20 41 19 81
18 69 -1 -12 -20 43 -7 70 16 31 27 43 30 65 16z m1038 -48 c-3 -10 -5 -4 -5
12 0 17 2 24 5 18 2 -7 2 -21 0 -30z m-4230 -25 c-3 -7 -5 -2 -5 12 0 14 2 19
5 13 2 -7 2 -19 0 -25z m111 -4 c-3 -14 -5 -12 -10 9 -3 19 -2 25 4 19 6 -6 8
-18 6 -28z m4148 9 c-10 -10 -19 5 -10 18 6 11 8 11 12 0 2 -7 1 -15 -2 -18z
m-3868 -8 c-3 -3 -9 2 -12 12 -6 14 -5 15 5 6 7 -7 10 -15 7 -18z m2915 -52
c-7 -2 -19 -2 -25 0 -7 3 -2 5 12 5 14 0 19 -2 13 -5z m-3311 -53 c3 -16 1
-30 -4 -30 -4 0 -8 14 -8 30 0 17 2 30 4 30 2 0 6 -13 8 -30z m658 27 c0 -2
-15 -16 -32 -33 l-33 -29 29 33 c28 30 36 37 36 29z m3139 -109 c23 -67 19
-79 -27 -93 -20 -6 -21 -4 -12 20 5 14 10 51 10 81 0 30 2 54 4 54 2 0 14 -28
25 -62z m-3672 20 c-3 -7 -5 -2 -5 12 0 14 2 19 5 13 2 -7 2 -19 0 -25z m4253
-32 c0 -13 -7 -29 -15 -36 -12 -10 -15 -7 -21 14 -6 27 11 60 27 50 5 -3 9
-16 9 -28z m-1857 -163 c12 -6 56 -23 97 -38 41 -15 84 -31 95 -36 11 -5 45
-15 75 -23 30 -8 64 -17 75 -21 16 -5 15 -4 -3 7 -12 8 -20 17 -17 20 3 3 -9
4 -27 2 -28 -3 -30 -2 -14 7 15 9 16 13 5 20 -19 12 -32 11 -24 -1 3 -5 -1
-10 -9 -10 -9 0 -13 6 -10 14 3 8 -2 16 -13 19 -10 3 12 5 49 6 l67 1 6 38 c9
52 13 61 14 30 1 -14 4 -34 7 -42 6 -15 8 -15 20 1 8 11 13 46 14 95 0 65 -3
77 -17 81 -13 3 -11 5 6 6 l24 1 -8 -142 c-18 -327 -12 -305 -73 -311 -26 -3
-87 -16 -137 -31 -49 -14 -118 -27 -152 -28 -60 -3 -89 -17 -40 -19 18 -1 17
-3 -8 -10 -21 -5 -5 -7 53 -6 45 1 82 -2 82 -6 0 -5 -50 -7 -111 -5 l-111 3 6
40 c8 52 26 256 32 365 8 137 18 170 22 69 2 -78 5 -87 25 -96z m532 115 c8 7
0 -182 -11 -234 -5 -27 -9 -30 -35 -26 -36 5 -43 26 -34 105 13 118 35 177 60
157 6 -5 15 -6 20 -2z m-136 -55 c0 -16 -5 -37 -10 -48 -7 -15 -8 -10 -5 22 2
26 0 44 -8 47 -6 2 -3 5 7 5 12 1 17 -6 16 -26z m899 -63 c32 -20 32 -20 27
-87 -2 -38 -7 -117 -10 -178 -6 -124 -15 -218 -22 -225 -18 -19 -30 98 -38
356 -2 69 -7 128 -9 133 -6 8 3 21 13 21 3 0 21 -9 39 -20z m-1173 0 c3 -5 1
-10 -4 -10 -6 0 -11 5 -11 10 0 6 2 10 4 10 3 0 8 -4 11 -10z m40 -20 c-11 -5
-27 -9 -35 -9 -9 0 -8 4 5 9 11 5 27 9 35 9 9 0 8 -4 -5 -9z m28 -27 c-7 -2
-19 -2 -25 0 -7 3 -2 5 12 5 14 0 19 -2 13 -5z m-703 -121 c0 -4 -16 -12 -35
-18 -19 -6 -35 -10 -35 -8 0 20 17 34 41 34 16 0 29 -3 29 -8z m1023 -40 c3
-4 -3 -41 -14 -82 -10 -41 -17 -63 -15 -47 2 15 -1 27 -5 27 -5 0 -9 -9 -9
-20 0 -12 -7 -20 -18 -20 -15 0 -17 9 -15 70 1 39 5 79 8 90 6 18 8 19 35 5
16 -8 31 -18 33 -23z m-1283 -12 c0 -25 -4 -30 -25 -30 -20 0 -25 5 -25 24 0
22 10 30 43 35 4 0 7 -12 7 -29z m180 11 c0 -17 -9 -20 -79 -23 -93 -4 -104
11 -21 28 84 18 100 17 100 -5z m977 -86 c-2 -5 -29 -10 -60 -10 -48 -1 -53 0
-34 10 27 14 98 14 94 0z m-2468 -128 c12 -65 35 -181 51 -259 16 -78 26 -145
21 -148 -5 -3 -5 -14 -1 -25 6 -15 35 -30 108 -54 56 -19 100 -37 100 -40 -4
-15 15 -289 28 -406 21 -193 22 -185 -36 -220 -39 -22 -53 -37 -60 -65 -13
-46 -13 -50 6 -50 13 0 13 -3 -2 -28 -9 -16 -28 -66 -43 -112 -19 -60 -34 -89
-53 -103 -15 -12 -31 -18 -34 -14 -5 5 53 217 107 390 6 22 1 49 -21 118 -33
98 -84 358 -160 812 -52 308 -57 348 -41 332 5 -6 19 -63 30 -128z m2451 102
c8 0 4 -5 -10 -9 -24 -8 -24 -8 -2 -9 12 -1 22 -6 22 -12 0 -7 -7 -8 -17 -4
-37 16 -80 16 -140 1 -70 -18 -84 -20 -63 -6 11 7 1 10 -35 11 l-50 2 45 6
c25 3 48 3 51 -2 3 -4 41 -1 85 6 45 8 73 16 64 20 -8 4 -4 5 10 2 14 -2 32
-5 40 -6z m-121 -2 c-10 -9 -59 -17 -59 -9 0 4 14 9 32 10 18 2 30 1 27 -1z
m-909 -97 c0 -11 -4 -20 -9 -20 -14 0 -23 18 -16 30 10 17 25 11 25 -10z m502
-154 c50 0 56 -2 45 -15 -10 -12 -9 -14 6 -8 33 12 17 -2 -40 -35 -75 -43
-137 -68 -191 -78 -36 -6 -42 -5 -37 8 4 12 3 12 -9 3 -13 -11 -46 -6 -46 8 0
3 20 25 43 49 51 50 101 70 113 44 4 -10 6 -23 5 -29 -1 -7 4 -13 10 -13 7 0
9 -3 6 -7 -4 -3 -18 6 -31 20 -26 28 -45 28 -78 -1 -20 -17 -23 -43 -7 -59 16
-16 126 16 132 38 3 10 0 21 -7 24 -15 7 37 -3 61 -12 17 -7 17 -6 0 11 -10
10 -15 21 -12 25 4 3 13 -2 20 -13 14 -18 15 -18 32 0 17 17 17 18 -1 11 -10
-4 -25 -2 -32 4 -7 6 -17 8 -21 6 -5 -3 -20 4 -33 15 -19 15 -20 18 -5 12 11
-5 46 -9 77 -8z m-52 -31 c7 -8 8 -15 2 -15 -5 0 -15 7 -22 15 -7 8 -8 15 -2
15 5 0 15 -7 22 -15z m-499 -108 c7 -7 25 -11 41 -9 15 2 28 0 28 -6 0 -6 16
-8 40 -5 21 3 47 2 57 -2 10 -4 36 -9 58 -11 21 -3 42 -9 46 -16 5 -7 22 -9
49 -4 l42 7 -33 -37 c-56 -60 -160 -145 -170 -138 -5 3 -8 1 -7 -4 2 -5 -18
-28 -43 -50 l-45 -41 -111 19 c-61 11 -144 27 -184 36 -41 9 -82 16 -91 16
-10 -1 -18 1 -18 2 0 6 274 233 295 244 26 15 32 15 46 -1z m956 -761 c-12
-37 -19 -42 -93 -71 -43 -17 -104 -44 -134 -60 -93 -48 -233 -116 -235 -113
-1 2 2 57 6 123 9 134 17 149 87 161 20 3 69 12 109 20 40 8 91 14 115 14 24
1 68 7 98 14 l55 13 3 -31 c1 -17 -3 -49 -11 -70z m-7 -154 c0 -27 -26 -46
-98 -76 -35 -14 -86 -39 -113 -56 -27 -16 -54 -30 -60 -30 -12 0 -154 -94
-187 -123 l-22 -21 6 50 c5 36 13 54 32 69 32 26 126 80 177 102 22 10 81 37
130 60 99 47 135 54 135 25z m-2269 -445 c-17 -17 -24 -1 -10 25 12 21 14 21
17 4 2 -10 -1 -23 -7 -29z m79 -196 c0 -10 -8 -22 -17 -26 -29 -11 -163 -19
-163 -9 1 24 22 36 81 43 98 13 99 13 99 -8z m-30 -76 c0 -10 -11 -15 -35 -15
-41 0 -47 17 -7 23 15 2 30 5 35 6 4 0 7 -6 7 -14z"/>
<path d="M4211 5704 c0 -11 3 -14 6 -6 3 7 2 16 -1 19 -3 4 -6 -2 -5 -13z"/>
<path d="M4216 5640 c-4 -24 -2 -48 4 -58 8 -13 10 -9 5 18 -5 26 -4 31 4 20
8 -11 9 -6 5 20 -9 47 -10 47 -18 0z"/>
<path d="M4330 5070 c0 -5 5 -10 10 -10 6 0 10 -7 10 -15 0 -8 -4 -15 -10 -15
-5 0 -10 5 -10 12 0 6 -2 9 -5 6 -4 -3 5 -22 18 -41 l25 -36 18 22 c10 12 12
16 4 10 -20 -18 -35 -16 -20 2 9 11 8 20 -10 45 -22 32 -30 37 -30 20z"/>
<path d="M4390 4953 c0 -15 -2 -16 -10 -3 -18 28 -10 4 18 -56 16 -32 34 -74
42 -92 7 -18 15 -31 17 -28 2 2 -10 35 -27 72 -18 38 -32 81 -32 97 1 15 -1
27 -4 27 -2 0 -4 -8 -4 -17z"/>
<path d="M4512 4900 c0 -14 2 -19 5 -12 2 6 2 18 0 25 -3 6 -5 1 -5 -13z"/>
<path d="M4466 4893 c-6 -14 -5 -15 5 -6 7 7 10 15 7 18 -3 3 -9 -2 -12 -12z"/>
<path d="M4543 4760 c0 -36 2 -50 4 -32 2 17 2 47 0 65 -2 17 -4 3 -4 -33z"/>
<path d="M4514 4757 c3 -10 1 -38 -4 -63 -8 -36 -7 -49 5 -67 8 -12 15 -17 15
-11 0 5 -5 15 -11 21 -7 7 -7 24 1 56 9 34 9 50 0 64 -11 17 -11 17 -6 0z"/>
<path d="M4472 4726 c16 -48 27 -53 25 -11 -2 26 -8 39 -19 41 -14 2 -15 -3
-6 -30z"/>
<path d="M4532 4665 c0 -16 2 -22 5 -12 2 9 2 23 0 30 -3 6 -5 -1 -5 -18z"/>
<path d="M4523 4467 c-3 -6 -1 -7 5 -3 7 4 12 2 12 -4 0 -6 5 -8 10 -5 6 3 10
10 10 14 0 11 -30 9 -37 -2z"/>
<path d="M4475 4399 c-4 -6 -5 -12 -2 -15 2 -3 7 2 10 11 7 17 1 20 -8 4z"/>
<path d="M4571 4374 c0 -11 3 -14 6 -6 3 7 2 16 -1 19 -3 4 -6 -2 -5 -13z"/>
<path d="M4412 4250 c0 -14 2 -19 5 -12 2 6 2 18 0 25 -3 6 -5 1 -5 -13z"/>
<path d="M4412 4070 c0 -14 2 -19 5 -12 2 6 2 18 0 25 -3 6 -5 1 -5 -13z"/>
<path d="M4412 4005 c0 -16 2 -22 5 -12 2 9 2 23 0 30 -3 6 -5 -1 -5 -18z"/>
<path d="M3600 5773 c0 -5 12 -21 26 -38 27 -31 27 -28 4 18 -12 25 -30 37
-30 20z"/>
<path d="M2946 5681 c-4 -5 -2 -12 3 -15 5 -4 12 -2 15 3 4 5 2 12 -3 15 -5 4
-12 2 -15 -3z"/>
<path d="M2990 5645 c7 -9 15 -13 17 -11 7 7 -7 26 -19 26 -6 0 -6 -6 2 -15z"/>
<path d="M3040 5633 c0 -6 9 -20 20 -33 11 -13 20 -20 20 -16 0 4 -9 19 -20
33 -11 14 -20 21 -20 16z"/>
<path d="M3113 5536 c4 -9 -1 -17 -11 -19 -10 -3 -5 -5 11 -6 25 -1 27 1 17
19 -12 23 -25 27 -17 6z"/>
<path d="M2498 4743 c7 -3 16 -2 19 1 4 3 -2 6 -13 5 -11 0 -14 -3 -6 -6z"/>
<path d="M3371 4710 l1 -45 11 33 c7 24 7 36 -1 44 -9 9 -12 1 -11 -32z"/>
<path d="M2429 4588 c0 -2 -2 -10 -4 -18 -2 -8 -6 -24 -11 -35 -9 -24 -4 -19
19 17 10 16 13 29 7 33 -6 3 -10 5 -11 3z"/>
<path d="M2500 4431 c48 -10 72 -24 108 -65 34 -39 53 -33 22 7 -26 32 -98 67
-136 66 -28 -1 -28 -2 6 -8z"/>
<path d="M2508 4370 c12 -5 25 -16 28 -25 4 -8 14 -15 23 -15 12 1 9 7 -12 25
-15 14 -36 25 -45 24 -12 0 -11 -3 6 -9z"/>
<path d="M2436 4328 c4 -7 3 -8 -4 -4 -17 10 -62 -4 -62 -20 0 -18 26 -18 84
2 53 18 53 19 8 27 -23 5 -31 3 -26 -5z"/>
<path d="M4880 4185 c-5 -14 -17 -39 -25 -55 -9 -17 -13 -30 -11 -30 6 0 32
48 46 85 5 14 7 25 5 25 -3 0 -10 -11 -15 -25z"/>
<path d="M4825 4080 c-3 -5 -1 -10 4 -10 6 0 11 5 11 10 0 6 -2 10 -4 10 -3 0
-8 -4 -11 -10z"/>
<path d="M4783 4018 c-34 -49 -52 -83 -28 -53 9 11 21 20 28 20 7 0 12 7 12
15 0 8 6 25 13 38 21 36 8 25 -25 -20z"/>
<path d="M4707 3897 l-17 -32 20 24 c17 20 26 41 18 41 -2 0 -11 -15 -21 -33z"/>
<path d="M4559 3713 l-24 -28 28 24 c25 23 32 31 24 31 -2 0 -14 -12 -28 -27z"/>
<path d="M5005 4660 c-3 -6 1 -7 9 -4 18 7 21 14 7 14 -6 0 -13 -4 -16 -10z"/>
<path d="M4900 4540 c0 -5 5 -10 10 -10 6 0 10 5 10 10 0 6 -4 10 -10 10 -5 0
-10 -4 -10 -10z"/>
<path d="M4877 4493 c-4 -3 -7 -11 -7 -17 0 -6 5 -5 12 2 6 6 9 14 7 17 -3 3
-9 2 -12 -2z"/>
<path d="M5592 4188 c8 -12 21 -24 29 -27 9 -3 8 1 -4 13 -9 10 -17 22 -17 27
0 5 -5 9 -11 9 -7 0 -6 -8 3 -22z"/>
<path d="M5380 4190 c0 -5 4 -10 9 -10 6 0 13 5 16 10 3 6 -1 10 -9 10 -9 0
-16 -4 -16 -10z"/>
<path d="M5511 3864 c0 -11 3 -14 6 -6 3 7 2 16 -1 19 -3 4 -6 -2 -5 -13z"/>
<path d="M5290 3755 c7 -8 17 -15 22 -15 6 0 5 7 -2 15 -7 8 -17 15 -22 15 -6
0 -5 -7 2 -15z"/>
<path d="M5606 3747 c3 -10 9 -15 12 -12 3 3 0 11 -7 18 -10 9 -11 8 -5 -6z"/>
<path d="M3025 3546 c28 -25 54 -46 60 -46 12 0 -62 67 -90 81 -11 5 3 -10 30
-35z"/>
<path d="M3615 3000 c10 -11 24 -20 32 -20 8 0 12 -3 10 -7 -3 -5 6 -9 20 -9
13 -1 23 -1 21 0 -2 2 -25 15 -52 30 -42 22 -47 23 -31 6z"/>
<path d="M5750 3799 c0 -5 5 -7 10 -4 6 3 10 8 10 11 0 2 -4 4 -10 4 -5 0 -10
-5 -10 -11z"/>
<path d="M2130 3305 c-7 -9 -10 -18 -7 -21 3 -3 10 4 17 15 13 25 8 27 -10 6z"/>
<path d="M4984 3738 l-19 -23 23 19 c21 18 27 26 19 26 -2 0 -12 -10 -23 -22z"/>
<path d="M4911 3736 c-9 -10 -8 -15 2 -19 8 -3 13 3 13 14 0 23 0 23 -15 5z"/>
<path d="M4885 3640 c-4 -6 -10 -8 -14 -5 -5 2 -13 -7 -20 -21 l-12 -26 31 28
c16 16 30 30 30 31 0 7 -9 2 -15 -7z"/>
<path d="M4809 3558 c-6 -21 -5 -37 2 -32 5 3 7 9 4 14 -3 4 1 11 7 13 10 4
10 6 1 6 -7 1 -13 0 -14 -1z"/>
<path d="M4674 3498 l-19 -23 23 19 c12 11 22 21 22 23 0 8 -8 2 -26 -19z"/>
<path d="M4629 3463 c-13 -16 -12 -17 4 -4 9 7 17 15 17 17 0 8 -8 3 -21 -13z"/>
<path d="M4600 3429 c0 -5 5 -7 10 -4 6 3 10 8 10 11 0 2 -4 4 -10 4 -5 0 -10
-5 -10 -11z"/>
<path d="M4694 3376 c-3 -8 -11 -13 -18 -10 -7 3 -19 -3 -26 -13 -12 -15 -12
-16 0 -5 24 21 34 13 14 -10 l-19 -23 23 20 c24 20 47 55 37 55 -3 0 -8 -6
-11 -14z"/>
<path d="M4587 3285 c-8 -8 -17 -12 -19 -9 -3 2 -11 -2 -18 -11 -20 -24 6 -18
37 10 15 13 25 25 21 25 -4 0 -13 -7 -21 -15z"/>
<path d="M4445 3264 c-9 -15 -13 -24 -7 -20 5 3 15 -1 22 -9 7 -8 18 -15 24
-15 6 0 3 5 -7 11 -15 9 -16 13 -5 27 11 13 11 14 -1 7 -11 -6 -13 -4 -8 8 9
25 2 21 -18 -9z"/>
<path d="M4509 3227 c-10 -13 -27 -20 -48 -20 -20 0 -27 -3 -19 -9 7 -4 18 -8
25 -8 15 0 70 46 63 53 -3 3 -12 -4 -21 -16z"/>
<path d="M4413 3193 c4 -3 1 -13 -6 -22 -11 -14 -10 -14 5 -2 16 12 16 31 1
31 -4 0 -3 -3 0 -7z"/>
<path d="M4370 3181 c0 -6 4 -13 10 -16 6 -3 7 1 4 9 -7 18 -14 21 -14 7z"/>
<path d="M4425 3160 c-10 -11 -22 -17 -26 -14 -5 3 -9 0 -9 -6 0 -6 -5 -8 -12
-4 -7 5 -8 3 -3 -6 6 -10 4 -12 -9 -7 -10 4 -20 7 -23 7 -3 0 1 8 8 18 13 16
12 16 -4 3 -17 -14 -17 -16 -3 -27 20 -14 21 -25 2 -18 -7 3 -16 -2 -19 -10
-4 -9 -13 -13 -21 -10 -17 7 -31 -12 -16 -21 6 -4 19 0 29 9 10 9 21 16 25 16
4 0 32 20 63 45 30 25 51 45 45 45 -5 0 -17 -9 -27 -20z"/>
<path d="M4219 3024 c-18 -19 -33 -38 -31 -42 1 -4 -2 -7 -7 -7 -10 0 -121
-104 -161 -151 -24 -28 77 62 133 118 15 15 29 28 32 28 11 0 105 73 100 78
-2 3 -13 -2 -23 -11 -26 -24 -39 -21 -17 3 31 34 11 22 -26 -16z m11 -8 c0 -2
-8 -10 -17 -17 -16 -13 -17 -12 -4 4 13 16 21 21 21 13z"/>
<path d="M3098 3193 c7 -3 16 -2 19 1 4 3 -2 6 -13 5 -11 0 -14 -3 -6 -6z"/>
<path d="M3121 3176 c-20 -11 -21 -14 -6 -19 9 -4 24 -3 33 3 11 6 12 9 4 10
-7 0 -10 5 -7 10 8 13 5 12 -24 -4z"/>
<path d="M3055 3170 c3 -5 15 -15 26 -21 18 -9 19 -9 7 10 -7 12 -19 21 -26
21 -7 0 -10 -4 -7 -10z"/>
<path d="M3224 3124 c-1 -13 2 -24 7 -24 5 0 9 2 9 4 0 2 3 11 6 19 3 8 -1 17
-8 19 -8 4 -14 -3 -14 -18z"/>
<path d="M3155 3110 c3 -5 10 -10 16 -10 5 0 9 5 9 10 0 6 -7 10 -16 10 -8 0
-12 -4 -9 -10z"/>
<path d="M3280 3110 c12 -7 10 -11 -10 -20 -22 -9 -22 -10 -3 -6 12 2 23 0 25
-5 2 -5 22 -11 46 -13 25 -3 40 -1 36 5 -3 5 -9 7 -14 4 -5 -3 -24 1 -42 10
-25 11 -27 13 -8 9 l25 -5 -25 15 c-27 16 -55 22 -30 6z"/>
<path d="M3208 3078 c5 -5 16 -8 23 -6 8 3 3 7 -10 11 -17 4 -21 3 -13 -5z"/>
<path d="M3380 3040 c0 -5 5 -10 11 -10 5 0 7 5 4 10 -3 6 -8 10 -11 10 -2 0
-4 -4 -4 -10z"/>
<path d="M3365 3011 c-3 -5 -1 -12 5 -16 5 -3 10 1 10 9 0 18 -6 21 -15 7z"/>
<path d="M3390 3008 c0 -9 7 -19 16 -22 24 -9 24 -4 3 18 -16 16 -19 17 -19 4z"/>
<path d="M4774 3154 c-18 -14 -18 -15 4 -4 12 6 22 13 22 15 0 8 -5 6 -26 -11z"/>
<path d="M4918 2973 c7 -3 16 -2 19 1 4 3 -2 6 -13 5 -11 0 -14 -3 -6 -6z"/>
<path d="M4803 2953 c9 -2 23 -2 30 0 6 3 -1 5 -18 5 -16 0 -22 -2 -12 -5z"/>
<path d="M4815 2470 c3 -5 8 -10 11 -10 2 0 4 5 4 10 0 6 -5 10 -11 10 -5 0
-7 -4 -4 -10z"/>
<path d="M4891 2278 c2 -31 2 -31 6 -5 2 15 8 25 13 22 5 -3 11 -1 15 5 3 5
-3 10 -14 10 -17 0 -21 -6 -20 -32z"/>
<path d="M4230 1940 c-9 -6 -10 -10 -3 -10 6 0 15 5 18 10 8 12 4 12 -15 0z"/>
<path d="M4035 1910 c-3 -5 -1 -10 4 -10 6 0 11 5 11 10 0 6 -2 10 -4 10 -3 0
-8 -4 -11 -10z"/>
<path d="M3700 1865 c-11 -13 -10 -14 6 -8 17 6 17 5 -2 -27 -10 -18 -26 -36
-34 -38 -11 -4 -10 0 3 16 14 15 16 25 9 38 -9 16 -13 15 -43 -16 -17 -19 -35
-34 -40 -33 -8 3 -7 -10 5 -44 4 -14 1 -31 -9 -46 -14 -22 -14 -25 -1 -30 9
-4 18 -2 21 3 4 6 1 10 -4 10 -6 0 -11 4 -11 10 0 5 6 8 13 6 6 -1 8 -1 4 2
-5 2 4 18 20 34 15 16 22 28 14 26 -7 -2 -14 4 -16 12 -4 26 14 60 32 60 16
-1 16 -2 3 -13 -17 -13 -19 -25 -7 -45 6 -9 14 -5 30 15 12 15 24 30 28 33 6
5 4 39 -4 46 -2 3 -10 -2 -17 -11z m-78 -82 c-10 -4 -9 -8 5 -19 16 -12 16
-13 2 -14 -9 0 -19 6 -22 14 -6 16 1 26 17 25 6 0 5 -3 -2 -6z"/>
<path d="M3752 1851 c-11 -7 -10 -9 3 -14 9 -4 14 -3 10 2 -3 5 1 12 7 14 7 3
9 6 3 6 -5 0 -16 -3 -23 -8z"/>
<path d="M3833 1838 c1 -7 11 -15 22 -18 11 -3 21 -16 23 -30 4 -25 32 -60 32
-40 0 7 7 10 15 7 21 -9 28 9 10 26 -20 21 -19 37 3 37 14 0 14 2 3 9 -9 6
-19 4 -28 -4 -15 -16 -17 -32 -3 -37 6 -2 6 -9 0 -18 -7 -12 -11 -8 -16 17 -4
19 -14 35 -25 38 -11 4 -19 11 -19 16 0 5 -4 9 -10 9 -5 0 -9 -6 -7 -12z"/>
<path d="M3870 1840 c8 -5 20 -10 25 -10 6 0 3 5 -5 10 -8 5 -19 10 -25 10 -5
0 -3 -5 5 -10z"/>
<path d="M3561 1766 c-7 -8 -10 -20 -6 -26 3 -5 -1 -10 -10 -10 -10 0 -14 5
-9 13 4 6 -12 -6 -34 -27 -23 -22 -39 -42 -36 -45 3 -3 9 1 14 9 10 16 11 15
29 -15 13 -20 10 -8 -6 32 -4 10 -3 14 5 9 6 -3 14 -1 17 5 4 5 13 8 21 5 8
-3 14 -1 14 5 0 5 7 9 16 7 22 -4 27 13 11 36 -12 16 -14 16 -26 2z m19 -21
c11 -13 10 -14 -4 -9 -9 3 -16 10 -16 15 0 13 6 11 20 -6z"/>
<path d="M3830 1710 c-24 -22 -50 -40 -57 -40 -12 0 -16 -10 -10 -27 1 -5 5
-7 10 -5 4 1 7 -3 7 -10 0 -6 3 -8 6 -5 4 4 1 13 -6 22 -10 12 -10 15 3 15 8
0 20 7 27 15 7 8 17 12 23 8 5 -3 7 -1 4 4 -8 12 18 37 30 30 5 -3 9 3 9 14 0
10 -1 19 -1 19 0 0 -21 -18 -45 -40z"/>
<path d="M3636 1691 c-3 -5 2 -15 12 -22 16 -13 16 -13 2 5 -14 18 -13 19 10
13 59 -16 74 -17 40 -3 -42 17 -57 19 -64 7z"/>
<path d="M3428 1652 c-11 -15 -11 -16 4 -4 13 10 17 10 20 0 3 -8 6 -9 11 -1
12 18 -21 23 -35 5z"/>
<path d="M3475 1640 c-3 -6 1 -7 9 -4 18 7 21 14 7 14 -6 0 -13 -4 -16 -10z"/>
<path d="M4632 1191 c-10 -6 -5 -11 17 -21 17 -7 28 -17 25 -22 -4 -6 -9 -6
-13 -1 -20 28 -142 46 -156 23 -4 -7 7 -8 32 -5 23 4 54 0 78 -8 34 -12 40
-19 38 -41 -1 -21 1 -23 11 -13 8 6 11 18 9 24 -3 7 0 13 6 13 6 0 10 10 8 23
-3 34 -27 46 -55 28z m35 -7 c-3 -3 -12 -4 -19 -1 -8 3 -5 6 6 6 11 1 17 -2
13 -5z"/>
<path d="M4433 1157 c-22 -8 -30 -16 -25 -25 5 -6 9 -33 11 -60 1 -26 6 -51
12 -56 6 -6 9 -6 9 0 0 5 5 2 10 -6 7 -11 10 0 10 38 0 28 -4 52 -9 52 -6 0
-7 -17 -4 -37 3 -21 3 -35 -1 -31 -4 3 -10 21 -12 40 -3 18 -7 38 -9 44 -2 6
1 17 6 25 7 11 9 8 9 -9 0 -13 4 -21 10 -17 5 3 7 12 3 20 -3 8 -1 15 5 15 13
0 22 -48 15 -82 -10 -54 0 -59 68 -31 113 45 120 73 19 73 -64 0 -71 2 -79 23
-5 12 -7 25 -4 30 6 9 -5 8 -44 -6z m133 -99 c-10 -6 -28 -7 -41 -4 -19 5 -23
3 -19 -9 4 -10 0 -15 -12 -15 -16 0 -17 2 -4 10 13 9 13 10 0 10 -36 1 14 17
52 17 31 0 37 -2 24 -9z"/>
<path d="M4548 1153 c6 -2 18 -2 25 0 6 3 1 5 -13 5 -14 0 -19 -2 -12 -5z"/>
<path d="M4606 956 c-27 -12 -27 -13 -7 -19 11 -3 19 -1 15 4 -3 5 -1 9 5 9
19 0 21 -19 4 -29 -10 -6 -13 -11 -7 -11 21 0 35 25 21 39 -10 11 -7 12 12 6
16 -5 21 -4 17 4 -9 14 -23 13 -60 -3z"/>
<path d="M4543 924 c-10 -7 -13 -14 -6 -14 6 0 14 4 17 9 3 5 15 7 26 4 11 -3
20 -3 20 0 0 12 -41 13 -57 1z"/>
<path d="M4554 909 c-3 -6 -16 -8 -28 -5 -20 5 -20 5 -2 -9 11 -8 22 -11 25
-6 3 5 15 10 26 13 18 3 18 4 3 10 -10 4 -20 2 -24 -3z"/>
<path d="M4480 891 c0 -5 6 -12 13 -14 10 -4 10 -6 0 -6 -7 -1 -13 -6 -13 -11
0 -6 8 -5 19 2 15 9 17 15 9 25 -12 15 -28 17 -28 4z"/>
</g>
</svg>
