<?xml version="1.0" standalone="no"?>
<!DOCTYPE svg PUBLIC "-//W3C//DTD SVG 20010904//EN"
 "http://www.w3.org/TR/2001/REC-SVG-20010904/DTD/svg10.dtd">
<svg version="1.0" xmlns="http://www.w3.org/2000/svg"
 width="400.000000pt" height="400.000000pt" viewBox="0 0 400.000000 400.000000"
 preserveAspectRatio="xMidYMid meet">

<g transform="translate(0.000000,400.000000) scale(0.100000,-0.100000)"
fill="#000000" stroke="none">
<path d="M0 2000 l0 -2000 866 0 866 0 -6 83 c-4 45 -13 219 -21 387 -8 168
-18 351 -21 407 -4 64 -3 103 3 103 5 0 24 -20 42 -45 31 -43 108 -105 130
-105 6 0 11 8 10 18 0 10 -3 12 -6 5 -8 -21 -56 11 -118 79 -55 62 -56 64 -50
108 4 25 11 53 16 62 9 17 13 16 57 -6 26 -13 71 -32 100 -41 29 -10 52 -21
52 -26 0 -5 -11 -37 -25 -71 -26 -64 -31 -88 -17 -88 5 0 17 -18 27 -39 16
-36 17 -73 13 -435 l-3 -396 89 0 89 0 -6 83 c-10 124 -34 352 -58 545 -18
147 -20 179 -9 217 12 44 30 61 30 28 0 -9 3 -14 6 -10 3 3 -6 42 -21 87 -15
45 -25 83 -24 84 2 2 37 19 77 39 l73 36 11 -27 c5 -15 15 -57 21 -94 12 -79
7 -88 -72 -132 -36 -19 -51 -23 -54 -14 -3 8 -6 6 -6 -4 -1 -10 1 -18 4 -18
13 0 92 44 112 63 13 11 25 19 27 16 10 -10 76 -729 76 -831 l0 -68 198 0 199
0 92 130 c82 117 93 129 107 115 9 -8 22 -15 31 -15 15 0 -1 -25 -104 -163
-24 -31 -43 -59 -43 -61 0 -2 34 -4 76 -5 61 -1 81 2 98 16 19 16 19 16 7 0
-11 -14 -11 -17 1 -17 7 0 33 27 57 59 39 55 45 59 65 48 11 -7 23 -13 25 -14
2 -1 -11 -20 -28 -41 -17 -22 -31 -43 -31 -46 0 -3 131 -6 290 -6 l290 0 0 38
c0 51 39 131 84 170 78 68 89 32 31 -100 -25 -56 -43 -104 -40 -106 9 -10 22
11 50 83 25 64 36 80 63 93 32 16 35 16 48 -3 20 -27 18 -35 -21 -109 -19 -36
-31 -66 -25 -66 5 0 14 9 20 20 14 26 46 26 62 0 10 -16 24 -20 65 -20 l53 0
-1 493 c-1 270 -4 480 -6 465 -2 -16 -8 -28 -12 -28 -4 0 -16 -21 -26 -48 -37
-90 -186 -368 -206 -382 -3 -3 -12 -23 -18 -45 -28 -91 -146 -295 -171 -295
-4 0 -17 15 -28 33 -26 41 -38 87 -23 87 6 0 13 -11 17 -24 3 -14 15 -33 26
-43 20 -17 20 -17 -1 17 -11 19 -21 46 -21 58 l0 24 31 -26 c17 -14 36 -26 42
-26 6 0 -4 13 -23 29 l-35 29 34 36 35 36 17 -38 c21 -45 25 -38 5 10 -18 42
-8 63 28 56 14 -3 26 -1 26 3 0 5 -9 9 -21 9 -30 0 -18 24 14 28 22 3 36 21
90 120 164 297 227 443 227 522 l0 56 -72 -12 c-40 -7 -76 -10 -80 -8 -3 2 -9
0 -13 -6 -4 -6 -10 -8 -15 -5 -4 3 -54 -9 -111 -26 -57 -17 -113 -33 -124 -35
-11 -2 -32 -6 -47 -10 -16 -3 -28 -2 -28 3 0 5 51 22 113 37 61 16 141 36 177
47 36 10 95 21 133 24 l67 7 0 108 c0 86 -3 109 -15 113 -8 4 -17 2 -20 -3 -4
-6 -16 -10 -28 -9 -21 0 -21 1 -2 9 16 7 17 9 3 9 -9 1 -24 -6 -32 -15 -9 -8
-24 -13 -34 -10 -9 3 -33 1 -52 -5 -44 -13 -121 -23 -182 -24 -34 0 -44 -3
-37 -12 7 -8 5 -10 -8 -7 -31 7 -178 -22 -176 -34 4 -16 -14 -15 -20 1 -3 9
-7 9 -20 -1 -9 -8 -31 -15 -49 -17 -18 -2 -54 -6 -79 -10 -38 -6 -46 -4 -46 9
0 9 7 16 16 17 9 1 5 5 -9 9 l-25 8 29 1 c25 1 27 3 15 17 -12 15 -10 16 21
10 26 -5 31 -4 20 3 -13 9 -12 11 5 11 11 0 58 5 105 10 47 6 128 15 180 20
52 6 109 13 125 15 17 3 80 9 140 15 61 6 116 13 123 15 6 2 12 0 12 -5 0 -6
9 -5 20 2 19 12 20 24 20 368 l0 355 -40 284 c-48 343 -48 349 -15 357 15 4
32 1 40 -6 13 -11 15 60 15 604 l0 616 -2000 0 -2000 0 0 -2000z m1713 1848
c170 -186 407 -459 407 -468 0 -22 26 -7 51 28 15 20 64 82 109 137 110 133
195 246 204 269 4 12 10 16 16 10 9 -9 80 -520 80 -577 0 -15 7 -30 15 -33 8
-4 15 -15 15 -26 0 -10 -4 -17 -8 -14 -4 2 -8 -9 -7 -25 0 -28 2 -29 45 -29
58 0 348 28 378 36 12 3 22 4 22 0 0 -20 -82 -222 -137 -335 l-65 -135 23 -17
c31 -23 136 -72 237 -110 70 -26 81 -33 71 -45 -13 -16 -155 -111 -231 -155
l-45 -26 14 -104 c14 -102 15 -105 59 -149 24 -25 44 -49 44 -52 0 -7 -79 -24
-160 -33 -30 -3 -64 -8 -76 -11 -17 -4 -22 0 -27 24 -8 38 -58 96 -98 112 -26
11 -30 17 -25 39 34 155 28 288 -15 358 -20 32 -23 52 -25 147 -3 169 -38 257
-143 363 -97 98 -245 160 -406 170 -152 9 -266 -24 -387 -110 -154 -111 -216
-258 -238 -572 l-11 -150 -55 -112 c-30 -62 -59 -115 -65 -118 -21 -14 -49
-87 -49 -129 0 -88 51 -147 148 -171 l47 -12 7 -59 c9 -70 40 -169 74 -235 13
-26 21 -55 18 -63 -4 -11 -123 -76 -138 -76 -2 0 -2 10 9 163 5 86 4 97 -10
97 -9 0 -24 -4 -34 -9 -10 -6 -63 -15 -118 -20 -55 -6 -108 -14 -118 -17 -16
-7 -17 -3 -12 32 4 21 28 82 54 134 26 52 49 98 51 101 1 3 -24 14 -56 23 -79
22 -245 103 -237 116 4 6 25 20 48 32 57 29 227 140 255 167 12 12 22 26 22
31 0 4 -21 22 -47 38 -62 38 -395 298 -405 316 -6 11 22 21 130 46 199 46 323
90 352 125 8 9 -31 74 -150 254 -89 133 -163 248 -166 256 -9 22 85 20 358 -7
125 -12 229 -20 232 -17 2 2 9 63 15 134 6 72 20 218 32 325 12 107 21 203 21
213 -1 9 3 17 8 17 5 0 47 -42 93 -92z m1677 -567 c0 -23 -19 -28 -128 -37
-79 -6 -82 -6 -82 14 0 17 8 22 38 27 20 4 44 8 52 10 8 1 39 3 68 4 45 1 52
-2 52 -18z m-232 -29 c2 -13 -2 -22 -10 -22 -29 -1 -126 -12 -175 -19 -47 -7
-53 -6 -59 11 -3 11 -4 21 -2 24 7 7 214 33 233 29 6 -1 11 -11 13 -23z m-266
-24 c3 -22 -2 -24 -117 -39 -66 -8 -126 -13 -132 -11 -23 7 -15 42 10 43 12 0
65 6 117 13 52 8 100 14 107 15 6 0 13 -9 15 -21z m-672 -81 c181 -66 293
-181 335 -344 23 -89 22 -93 -29 -93 -25 0 -116 -21 -203 -46 -102 -30 -180
-47 -220 -48 -58 -1 -69 3 -225 81 -172 88 -203 99 -242 89 -65 -16 -74 -71
-20 -121 39 -37 123 -90 130 -82 3 2 -14 16 -38 30 -66 39 -118 93 -113 119 6
29 22 38 72 38 33 0 77 -18 210 -86 l168 -86 70 5 c39 3 140 26 225 52 160 47
215 53 234 23 14 -22 -20 -59 -80 -88 -43 -20 -60 -20 -492 -20 l-447 1 -32
-35 c-23 -25 -35 -51 -44 -95 -11 -56 -14 -61 -38 -61 l-26 0 8 132 c22 378
122 542 392 645 54 21 74 23 195 20 117 -3 145 -7 210 -30z m350 -552 c0 -22
-4 -25 -36 -25 l-37 0 34 24 c19 13 35 25 37 25 1 1 2 -10 2 -24z m-450 -211
c0 -41 -4 -63 -10 -59 -15 9 -13 4 20 -66 36 -80 51 -170 43 -266 -7 -86 -20
-111 -50 -95 -24 13 -59 91 -69 151 -4 23 -11 44 -15 47 -27 17 22 -144 57
-186 53 -62 83 -32 91 92 6 77 6 78 25 61 15 -13 44 -19 116 -23 148 -8 220 0
242 28 10 12 21 22 25 22 6 0 -3 -231 -11 -270 -1 -8 -3 -26 -3 -38 l-1 -24
-31 26 c-20 17 -42 26 -65 26 -43 0 -37 -17 7 -18 18 0 42 -10 55 -23 27 -25
42 -97 26 -125 -8 -15 -4 -31 18 -71 20 -35 25 -53 16 -53 -23 0 -61 50 -58
76 l3 24 -50 -27 c-58 -29 -62 -42 -7 -19 l36 15 -6 -27 c-23 -97 -96 -223
-168 -292 -48 -46 -138 -99 -168 -100 -27 0 -30 -17 -5 -33 31 -21 78 -69 72
-75 -2 -3 -23 14 -45 37 -41 42 -60 51 -60 28 0 -8 -36 -30 -80 -51 -46 -21
-80 -43 -80 -51 0 -10 -9 -14 -25 -13 -17 2 -25 8 -25 20 0 10 -6 18 -14 18
-16 0 -187 68 -198 79 -5 4 -11 39 -14 79 l-7 72 64 -38 c99 -59 173 -83 272
-89 51 -4 87 -2 87 4 0 5 -16 7 -35 5 -63 -7 -167 18 -260 63 -217 105 -353
298 -389 553 -5 34 -3 42 9 42 36 0 2 18 -45 23 -134 16 -206 128 -151 236 26
50 85 101 119 102 28 2 50 5 67 8 6 1 0 6 -12 11 -13 5 -23 17 -23 26 0 18 37
74 49 74 5 0 13 -30 19 -66 15 -88 52 -151 105 -175 34 -15 66 -19 172 -19
152 0 190 13 247 79 46 54 69 125 75 239 5 81 8 92 24 92 17 0 19 -8 19 -66z
m523 -275 c43 -22 77 -63 93 -111 9 -27 14 -55 11 -62 -6 -16 41 -119 90 -194
19 -30 32 -56 30 -58 -2 -2 -65 -7 -140 -11 l-137 -6 0 41 c0 37 3 42 42 64
45 25 103 89 96 108 -2 6 -15 -5 -28 -26 -22 -34 -88 -89 -97 -81 -4 5 9 347
14 347 2 0 14 -5 26 -11z m-1761 -395 c248 -173 375 -262 423 -295 79 -56 200
-141 218 -152 22 -15 22 -43 0 -51 -17 -7 -68 26 -343 219 -58 40 -143 100
-190 132 -233 159 -340 237 -340 248 0 17 23 36 37 31 7 -3 95 -62 195 -132z
m2980 -351 c-6 -2 -9 -10 -6 -15 4 -7 2 -8 -5 -4 -13 9 -5 26 12 25 9 0 8 -2
-1 -6z m-222 -228 c11 -13 8 -15 -14 -15 -25 0 -33 10 -19 23 10 11 19 8 33
-8z m-972 -214 c18 -18 45 -57 60 -89 37 -74 98 -188 206 -385 137 -250 146
-267 138 -267 -4 1 -19 20 -33 43 -39 63 -227 405 -304 552 -40 77 -82 144
-104 163 -20 19 -27 29 -16 24 11 -6 35 -24 53 -41z m979 -253 c-3 -7 -5 -2
-5 12 0 14 2 19 5 13 2 -7 2 -19 0 -25z m-1048 -418 c-1 -113 -14 -76 -21 59
-4 72 -3 80 8 60 9 -15 13 -58 13 -119z m961 95 c-7 -8 -17 -15 -22 -15 -6 0
-5 7 2 15 7 8 17 15 22 15 6 0 5 -7 -2 -15z m-165 -44 c3 -6 -16 -11 -42 -13
-46 -3 -48 -4 -55 -38 l-6 -35 1 40 c2 36 5 41 32 46 46 10 63 10 70 0z m-467
-13 c7 -7 12 -17 12 -24 0 -19 -39 -24 -56 -6 -15 14 -15 17 2 29 22 16 27 16
42 1z m606 -117 c13 -14 13 -19 0 -41 -12 -21 -14 -22 -9 -4 4 17 0 23 -20 28
-35 9 -49 43 -35 81 l12 30 19 -39 c10 -22 25 -46 33 -55z m-406 -39 c-4 -24
-56 -29 -65 -6 -9 24 24 47 49 33 11 -6 18 -18 16 -27z m485 -11 c-10 -17 -24
-31 -31 -31 -8 0 -2 14 15 35 33 41 40 40 16 -4z m-1054 -55 c-7 -8 -98 -10
-105 -3 -4 4 19 7 51 7 32 0 56 -2 54 -4z m79 -3 c-10 -2 -28 -2 -40 0 -13 2
-5 4 17 4 22 1 32 -1 23 -4z m46 -9 c5 -14 4 -15 -9 -4 -17 14 -19 20 -6 20 5
0 12 -7 15 -16z m290 7 c-8 -8 -43 -8 -38 0 2 4 13 7 24 6 10 -1 17 -3 14 -6z
m179 2 c-7 -2 -19 -2 -25 0 -7 3 -2 5 12 5 14 0 19 -2 13 -5z m95 2 c-10 -11
-48 -14 -48 -4 0 5 12 9 27 9 14 0 24 -2 21 -5z m339 -1 c-3 -3 -12 -4 -19 -1
-8 3 -5 6 6 6 11 1 17 -2 13 -5z m-1167 -39 c0 -5 -5 -3 -10 5 -5 8 -10 20
-10 25 0 6 5 3 10 -5 5 -8 10 -19 10 -25z"/>
<path d="M2788 2279 c-21 -11 -38 -23 -38 -27 0 -7 82 -62 92 -62 5 0 -8 100
-14 105 -2 2 -20 -6 -40 -16z"/>
<path d="M1968 2772 c70 -70 101 -85 154 -75 15 3 35 14 45 25 18 21 18 21
-14 4 -18 -9 -48 -16 -68 -16 -31 0 -45 9 -100 65 -36 36 -69 65 -75 65 -5 0
21 -31 58 -68z"/>
<path d="M2543 2034 c-27 -19 -117 -44 -161 -44 -18 0 -31 -4 -27 -9 12 -20
164 16 205 49 29 23 15 26 -17 4z"/>
<path d="M1598 2010 c48 -40 172 -53 242 -24 l35 14 -43 -6 c-85 -12 -159 -6
-208 15 -47 20 -48 20 -26 1z"/>
<path d="M1524 1851 c-39 -24 -58 -69 -51 -124 4 -32 15 -51 46 -79 22 -21 46
-38 52 -38 7 0 -6 16 -29 36 -54 46 -70 95 -49 146 18 42 67 73 103 64 14 -4
24 -2 24 4 0 17 -63 11 -96 -9z"/>
<path d="M1593 1775 c-13 -9 -23 -26 -23 -39 0 -12 10 -32 23 -44 32 -30 160
-89 224 -103 l54 -12 -3 -51 c-3 -46 -1 -51 19 -54 14 -2 26 4 33 18 18 33 30
13 30 -49 0 -70 25 -111 69 -111 44 0 65 32 71 109 4 58 8 66 26 69 14 2 27
-6 38 -22 30 -47 70 -28 78 37 2 14 7 29 10 33 4 3 43 12 88 20 97 17 152 43
168 79 11 23 10 32 -3 51 -25 39 -57 40 -171 4 -101 -32 -109 -32 -232 -27
-141 5 -276 33 -354 72 -67 34 -117 41 -145 20z m152 -37 c72 -33 210 -64 330
-74 87 -7 179 6 260 36 72 26 109 29 113 9 3 -19 -48 -42 -128 -59 l-45 -9 50
4 c28 2 59 7 71 11 13 3 28 -1 39 -12 17 -18 17 -19 -16 -32 -106 -44 -392
-53 -564 -17 -79 16 -236 82 -249 104 -4 6 -1 13 6 16 18 7 93 -19 93 -33 0
-6 4 -14 8 -19 5 -4 7 -1 5 7 -2 9 3 14 12 12 8 -2 31 -6 50 -8 31 -3 29 -2
-10 9 -28 8 -46 20 -48 30 -4 19 -18 23 -24 7 -2 -6 -17 -6 -40 2 -30 9 -38
16 -38 35 0 22 3 24 31 18 17 -4 60 -20 94 -37z m363 -177 l112 -1 0 -28 c0
-16 -7 -37 -14 -48 -14 -18 -16 -18 -45 14 -16 17 -34 32 -40 32 -22 0 -41
-33 -41 -74 0 -90 -35 -133 -86 -105 -24 12 -29 28 -25 84 3 40 -15 85 -33 85
-7 0 -20 -10 -28 -22 -19 -28 -40 -15 -32 20 13 61 10 59 67 51 28 -4 103 -8
165 -8z"/>
</g>
</svg>
