<svg width="512" height="512" viewBox="0 0 508 508" xml:space="preserve" xmlns="http://www.w3.org/2000/svg"><g style="display:inline"><circle style="display:inline;opacity:1;fill:#fff;stroke-width:2.64583" cx="254" cy="254" r="254"/></g><path d="M491.503 221.066c-11.313-7.615-41.039-10.867-62.65-5.046-1.166-21.527-12.264-39.666-32.57-55.493l-7.517-5.046-5.01 7.566c-9.847 14.948-13.996 34.863-12.526 52.966 1.16 11.154 5.04 23.693 12.527 32.79-28.128 16.315-54.053 12.612-168.871 12.612H37.613c-.518 25.925 3.65 75.798 35.365 116.398a144 144 0 0 0 11.513 13.002c25.785 25.821 64.743 44.754 123 44.81 88.874.08 165.02-47.959 211.337-164.112 15.241.25 55.475 2.733 75.164-35.316.482-.64 5.01-10.092 5.01-10.092l-7.505-5.046zm-338.2-23.71h-49.849v49.848h49.85zm64.402 0h-49.85v49.848h49.85zm64.4 0h-49.848v49.848h49.849zm64.402 0h-49.849v49.848h49.85zm-257.605 0H39.053v49.848h49.85Zm64.402-62.962h-49.85v49.85h49.85zm64.4 0h-49.848v49.85h49.849zm64.402 0h-49.85v49.85h49.85zm0-62.967h-49.85v49.849h49.85z" style="fill:#1d63ed;stroke-width:0"/></svg>