<svg width="500" height="250" viewBox="0 0 132.292 66.146" xml:space="preserve" xmlns="http://www.w3.org/2000/svg"><g transform="matrix(1.88826 0 0 1.6233 -59.004 -11.897)"><path style="opacity:1;fill:#000;fill-opacity:1;stroke:none;stroke-width:.302493;stroke-dasharray:none;stroke-opacity:0" d="M31.249 7.329h70.174v40.748H31.249z"/><circle style="opacity:1;fill:#f9f9f9;fill-opacity:1;stroke:#000;stroke-width:.529167;stroke-dasharray:none;stroke-opacity:0" cx="42.204" cy="20.723" r=".758"/><ellipse style="opacity:1;fill:#f9f9f9;fill-opacity:1;stroke:#000;stroke-width:.529167;stroke-dasharray:none;stroke-opacity:0" cx="42.577" cy="41.257" rx="1.396" ry="1.327"/><ellipse style="opacity:1;fill:#f9f9f9;fill-opacity:1;stroke:#000;stroke-width:.529167;stroke-dasharray:none;stroke-opacity:0" cx="73.674" cy="11.568" rx="1.51" ry="1.585"/><ellipse style="opacity:1;fill:#f9f9f9;fill-opacity:1;stroke:#000;stroke-width:.529167;stroke-dasharray:none;stroke-opacity:0" cx="90.095" cy="33.328" rx=".695" ry=".727"/><ellipse style="opacity:1;fill:#f9f9f9;fill-opacity:1;stroke:#000;stroke-width:.529167;stroke-dasharray:none;stroke-opacity:0" cx="81.945" cy="22.745" rx=".632" ry=".569"/><ellipse style="opacity:1;fill:#f9f9f9;fill-opacity:1;stroke:#000;stroke-width:.529167;stroke-dasharray:none;stroke-opacity:0" cx="90.442" cy="42.495" rx=".347" ry=".353"/><ellipse style="opacity:1;fill:#f9f9f9;fill-opacity:1;stroke:#000;stroke-width:.529167;stroke-dasharray:none;stroke-opacity:0" cx="42.236" cy="10.261" rx=".537" ry=".543"/><ellipse style="fill:#f9f9f9;fill-opacity:1;stroke:#000;stroke-width:.529167;stroke-dasharray:none;stroke-opacity:0" cx="85.198" cy="27.176" rx=".948" ry="1.095"/><ellipse style="fill:#f9f9f9;fill-opacity:1;stroke:#000;stroke-width:.529167;stroke-dasharray:none;stroke-opacity:0" cx="95.686" cy="13.268" rx=".569" ry=".632"/><ellipse style="fill:#f9f9f9;fill-opacity:1;stroke:#000;stroke-width:.529167;stroke-dasharray:none;stroke-opacity:0" cx="81.408" cy="9.52" rx="1.011" ry=".904"/><ellipse style="fill:#f9f9f9;fill-opacity:1;stroke:#000;stroke-width:.529167;stroke-dasharray:none;stroke-opacity:0" cx="82.266" cy="43.873" rx=".417" ry=".342"/><ellipse style="fill:#f9f9f9;fill-opacity:1;stroke:#000;stroke-width:.531456;stroke-dasharray:none;stroke-opacity:0" cx="28.381" cy="50.005" rx="1.576" ry="1.532" transform="matrix(.8281 -.56058 .44743 .89432 0 0)"/><ellipse style="fill:#f9f9f9;fill-opacity:1;stroke:#000;stroke-width:.531456;stroke-dasharray:none;stroke-opacity:0" cx="45.52" cy="71.034" rx=".725" ry=".702" transform="matrix(.8281 -.56058 .44743 .89432 0 0)"/><ellipse style="fill:#f9f9f9;fill-opacity:1;stroke:#000;stroke-width:.531456;stroke-dasharray:none;stroke-opacity:0" cx="45.882" cy="79.894" rx=".363" ry=".342" transform="matrix(.8281 -.56058 .44743 .89432 0 0)"/><ellipse style="fill:#f9f9f9;fill-opacity:1;stroke:#000;stroke-width:.531456;stroke-dasharray:none;stroke-opacity:0" cx="56.499" cy="45.909" rx=".725" ry=".733" transform="matrix(.8281 -.56058 .44743 .89432 0 0)"/><ellipse style="fill:#f9f9f9;fill-opacity:1;stroke:#000;stroke-width:.531456;stroke-dasharray:none;stroke-opacity:0" cx="50.301" cy="85.353" rx=".462" ry=".611" transform="matrix(.8281 -.56058 .44743 .89432 0 0)"/><ellipse style="fill:#f9f9f9;fill-opacity:1;stroke:#000;stroke-width:.531456;stroke-dasharray:none;stroke-opacity:0" cx="40.409" cy="65.09" rx=".989" ry="1.058" transform="matrix(.8281 -.56058 .44743 .89432 0 0)"/><ellipse style="fill:#f9f9f9;fill-opacity:1;stroke:#000;stroke-width:.531456;stroke-dasharray:none;stroke-opacity:0" cx="51.356" cy="51.648" rx=".593" ry=".611" transform="matrix(.8281 -.56058 .44743 .89432 0 0)"/><ellipse style="fill:#f9f9f9;fill-opacity:1;stroke:#000;stroke-width:.529167;stroke-dasharray:none;stroke-opacity:0" cx="72.094" cy="27.346" rx="1.51" ry="1.585"/><ellipse style="fill:#f9f9f9;fill-opacity:1;stroke:#000;stroke-width:.529167;stroke-dasharray:none;stroke-opacity:0" cx="80.365" cy="38.523" rx=".632" ry=".569"/><ellipse style="fill:#f9f9f9;fill-opacity:1;stroke:#000;stroke-width:.529167;stroke-dasharray:none;stroke-opacity:0" cx="79.828" cy="25.299" rx="1.011" ry=".904"/><ellipse style="fill:#f9f9f9;fill-opacity:1;stroke:#000;stroke-width:.531456;stroke-dasharray:none;stroke-opacity:0" cx="47.953" cy="58.195" rx=".725" ry=".733" transform="matrix(.8281 -.56058 .44743 .89432 0 0)"/><ellipse style="fill:#f9f9f9;fill-opacity:1;stroke:#000;stroke-width:.529167;stroke-dasharray:none;stroke-opacity:0" cx="52.468" cy="28.041" rx=".442" ry=".505"/><ellipse style="fill:#f9f9f9;fill-opacity:1;stroke:#000;stroke-width:.531456;stroke-dasharray:none;stroke-opacity:0" cx="33.089" cy="59.358" rx=".989" ry="1.058" transform="matrix(.8281 -.56058 .44743 .89432 0 0)"/><ellipse style="fill:#f9f9f9;fill-opacity:1;stroke:#000;stroke-width:.531456;stroke-dasharray:none;stroke-opacity:0" cx="40.633" cy="52.464" rx=".725" ry=".733" transform="matrix(.8281 -.56058 .44743 .89432 0 0)"/><ellipse style="fill:#f9f9f9;fill-opacity:1;stroke:#000;stroke-width:.529354;stroke-dasharray:none;stroke-opacity:0" cx="-53.791" cy="54.483" rx=".513" ry=".436" transform="matrix(-.10746 -.9942 .98947 -.14471 0 0)"/><ellipse style="fill:#f9f9f9;fill-opacity:1;stroke:#000;stroke-width:.531981;stroke-dasharray:none;stroke-opacity:0" cx="-76.196" cy="31.073" rx="1.048" ry="1.001" transform="matrix(-.54876 -.83598 .74767 -.66407 0 0)"/><ellipse style="fill:#f9f9f9;fill-opacity:1;stroke:#000;stroke-width:.531981;stroke-dasharray:none;stroke-opacity:0" cx="-68.202" cy="24.553" rx=".769" ry=".693" transform="matrix(-.54876 -.83598 .74767 -.66407 0 0)"/><ellipse style="fill:#f9f9f9;fill-opacity:1;stroke:#000;stroke-width:.529167;stroke-dasharray:none;stroke-opacity:0" cx="56.469" cy="16.482" rx="1.51" ry="1.585"/><ellipse style="fill:#f9f9f9;fill-opacity:1;stroke:#000;stroke-width:.531456;stroke-dasharray:none;stroke-opacity:0" cx="38.761" cy="40.286" rx=".725" ry=".733" transform="matrix(.8281 -.56058 .44743 .89432 0 0)"/><ellipse style="fill:#f9f9f9;fill-opacity:1;stroke:#000;stroke-width:.531456;stroke-dasharray:none;stroke-opacity:0" cx="33.618" cy="46.025" rx=".593" ry=".611" transform="matrix(.8281 -.56058 .44743 .89432 0 0)"/><ellipse style="fill:#f9f9f9;fill-opacity:1;stroke:#000;stroke-width:.531456;stroke-dasharray:none;stroke-opacity:0" cx="57.488" cy="77.018" rx=".593" ry=".58" transform="matrix(.8281 -.56058 .44743 .89432 0 0)"/><ellipse style="fill:#f9f9f9;fill-opacity:1;stroke:#000;stroke-width:.529167;stroke-dasharray:none;stroke-opacity:0" cx="48.088" cy="41.513" rx=".417" ry=".342"/><ellipse style="fill:#f9f9f9;fill-opacity:1;stroke:#000;stroke-width:.531456;stroke-dasharray:none;stroke-opacity:0" cx="15.753" cy="49.738" rx=".725" ry=".702" transform="matrix(.8281 -.56058 .44743 .89432 0 0)"/><ellipse style="fill:#f9f9f9;fill-opacity:1;stroke:#000;stroke-width:.531456;stroke-dasharray:none;stroke-opacity:0" cx="20.534" cy="64.056" rx=".462" ry=".611" transform="matrix(.8281 -.56058 .44743 .89432 0 0)"/><ellipse style="fill:#f9f9f9;fill-opacity:1;stroke:#000;stroke-width:.531456;stroke-dasharray:none;stroke-opacity:0" cx="27.722" cy="55.722" rx=".593" ry=".58" transform="matrix(.8281 -.56058 .44743 .89432 0 0)"/><circle style="fill:#f9f9f9;fill-opacity:1;stroke:#000;stroke-width:.529167;stroke-dasharray:none;stroke-opacity:0" cx="91.79" cy="22.573" r=".758"/><ellipse style="fill:#f9f9f9;fill-opacity:1;stroke:#000;stroke-width:.529167;stroke-dasharray:none;stroke-opacity:0" cx="92.163" cy="43.107" rx="1.396" ry="1.327"/><ellipse style="fill:#f9f9f9;fill-opacity:1;stroke:#000;stroke-width:.529167;stroke-dasharray:none;stroke-opacity:0" cx="43.642" cy="38.317" rx=".695" ry=".727"/><ellipse style="fill:#f9f9f9;fill-opacity:1;stroke:#000;stroke-width:.529167;stroke-dasharray:none;stroke-opacity:0" cx="35.492" cy="27.735" rx=".632" ry=".569"/><ellipse style="fill:#f9f9f9;fill-opacity:1;stroke:#000;stroke-width:.529167;stroke-dasharray:none;stroke-opacity:0" cx="43.989" cy="47.484" rx=".347" ry=".353"/><ellipse style="fill:#f9f9f9;fill-opacity:1;stroke:#000;stroke-width:.529167;stroke-dasharray:none;stroke-opacity:0" cx="91.822" cy="12.111" rx=".537" ry=".543"/><ellipse style="fill:#f9f9f9;fill-opacity:1;stroke:#000;stroke-width:.529167;stroke-dasharray:none;stroke-opacity:0" cx="38.745" cy="32.166" rx=".948" ry="1.095"/><ellipse style="fill:#f9f9f9;fill-opacity:1;stroke:#000;stroke-width:.529167;stroke-dasharray:none;stroke-opacity:0" cx="49.233" cy="18.258" rx=".569" ry=".632"/><ellipse style="fill:#f9f9f9;fill-opacity:1;stroke:#000;stroke-width:.529167;stroke-dasharray:none;stroke-opacity:0" cx="34.955" cy="14.51" rx="1.011" ry=".904"/><ellipse style="fill:#f9f9f9;fill-opacity:1;stroke:#000;stroke-width:.531456;stroke-dasharray:none;stroke-opacity:0" cx="72.276" cy="79.588" rx="1.576" ry="1.532" transform="matrix(.8281 -.56058 .44743 .89432 0 0)"/><ellipse style="fill:#f9f9f9;fill-opacity:1;stroke:#000;stroke-width:.529167;stroke-dasharray:none;stroke-opacity:0" cx="33.912" cy="43.513" rx=".632" ry=".569"/><ellipse style="fill:#f9f9f9;fill-opacity:1;stroke:#000;stroke-width:.529167;stroke-dasharray:none;stroke-opacity:0" cx="33.375" cy="30.289" rx="1.011" ry=".904"/><ellipse style="fill:#f9f9f9;fill-opacity:1;stroke:#000;stroke-width:.531456;stroke-dasharray:none;stroke-opacity:0" cx="82.656" cy="69.869" rx=".725" ry=".733" transform="matrix(.8281 -.56058 .44743 .89432 0 0)"/><ellipse style="fill:#f9f9f9;fill-opacity:1;stroke:#000;stroke-width:.531456;stroke-dasharray:none;stroke-opacity:0" cx="77.513" cy="75.608" rx=".593" ry=".611" transform="matrix(.8281 -.56058 .44743 .89432 0 0)"/><ellipse style="fill:#f9f9f9;fill-opacity:1;stroke:#000;stroke-width:.531456;stroke-dasharray:none;stroke-opacity:0" cx="13.332" cy="54.92" rx=".593" ry=".58" transform="matrix(.8281 -.56058 .44743 .89432 0 0)"/><ellipse style="fill:#f9f9f9;fill-opacity:1;stroke:#000;stroke-width:.529167;stroke-dasharray:none;stroke-opacity:0" cx="97.674" cy="43.363" rx=".417" ry=".342"/><ellipse style="fill:#f9f9f9;fill-opacity:1;stroke:#000;stroke-width:.531456;stroke-dasharray:none;stroke-opacity:0" cx="59.648" cy="79.321" rx=".725" ry=".702" transform="matrix(.8281 -.56058 .44743 .89432 0 0)"/><ellipse style="fill:#f9f9f9;fill-opacity:1;stroke:#000;stroke-width:.531456;stroke-dasharray:none;stroke-opacity:0" cx="71.617" cy="85.305" rx=".593" ry=".58" transform="matrix(.8281 -.56058 .44743 .89432 0 0)"/></g></svg>