<svg width="1280" height="1280" viewBox="0 0 338.667 338.667" xml:space="preserve" xmlns="http://www.w3.org/2000/svg"><g style="display:inline;fill:#b3b3b3"><g stroke-width="0" style="display:inline;fill:#b3b3b3" transform="translate(63.5 63.5)scale(7.10505)"/><g style="display:inline;fill:none;stroke-width:.18619375;stroke-dasharray:none;stroke:#000;stroke-opacity:1"><path d="M6.342 9.534c-2.64.697-5.464 1.57-6.342 2.31 1.394 2.675 7.088 2.574 7.088 2.574l1.685-2.485m.063-.11 2.45-3.617c0-.002-5.004-1.539-2.575-7.055-3.707 3.305-4.594 6.666.235 10.652M14.81 8.27l-3.219.005-3.567 5.35c-1.783 3.379 2.885 7.521 3.569 8.247.685.727-2.279 1.086-2.26 2.479.012.836.616 1.684 1.931 2.234-.014-.103-.04-.198-.04-.304 0-.206.069-.399.125-.596-.294-.195-.477-.458-.43-.726.075-.426.683-.676 1.352-.556.672.117 1.157.56 1.081.985-.022.128-.115.215-.206.324a.44.44 0 0 0-.08.246c0 .66.75 1.217 1.742 1.217M9.816 15.59c-.474-.33-.482-1.46-.482-1.46s.679.083 1.271.52c.594.435.802 1.604.978 2.179-.479-.786-1.293-.909-1.767-1.239z" style="fill:none;stroke:#000;stroke-width:.186194;stroke-dasharray:none;stroke-opacity:1" transform="translate(60.857 63.5)scale(7.10505)"/><path d="M14.863 27.628c-1.258 0-2.241-.744-2.241-1.664 0-.252.082-.487.22-.701a2 2 0 0 1-.56-.355c-.381.389-.61.862-.61 1.377 0 1.305 1.352 2.36 3.137 2.36" style="fill:none;stroke:#000;stroke-width:.186194;stroke-dasharray:none;stroke-opacity:1" transform="translate(60.857 63.5)scale(7.10505)"/><path style="opacity:1;fill:none;stroke:#000;stroke-width:.194285;stroke-dasharray:none;stroke-opacity:1" d="M6.242 9.505c1.656 1.978 1.868 2.003 2.47 2.497" transform="translate(60.857 63.5)scale(7.10505)"/><path style="opacity:1;fill:none;stroke:#000;stroke-width:.186194;stroke-dasharray:none;stroke-opacity:1" d="M14.898 8.177v19.091m.002.267-.004 1.204" transform="translate(60.857 63.5)scale(7.10505)"/><path d="M23.764 9.534c2.64.697 5.463 1.57 6.341 2.31-1.394 2.675-7.088 2.574-7.088 2.574l-1.685-2.485m-.062-.11-2.452-3.617c0-.002 5.006-1.539 2.577-7.055 3.707 3.305 4.593 6.666-.236 10.652M15.295 8.27l3.22.005 3.566 5.35c1.783 3.379-2.885 7.521-3.569 8.247-.685.727 2.28 1.086 2.26 2.479-.012.836-.616 1.684-1.93 2.234.013-.103.04-.198.04-.304 0-.206-.07-.399-.126-.596.294-.195.477-.458.43-.726-.075-.426-.683-.676-1.352-.556-.672.117-1.157.56-1.08.985.021.128.114.215.205.324.05.065.08.164.08.246 0 .66-.75 1.217-1.742 1.217M20.29 15.59c.474-.33.482-1.46.482-1.46s-.679.083-1.27.52c-.595.435-.803 1.604-.979 2.179.48-.786 1.293-.909 1.767-1.239z" style="display:inline;fill:none;stroke:#000;stroke-width:.186194;stroke-dasharray:none;stroke-opacity:1" transform="translate(65.084 63.5)scale(7.10505)"/><path d="M15.242 27.628c1.258 0 2.241-.744 2.241-1.664 0-.252-.082-.487-.22-.701.233-.104.42-.225.56-.355.381.389.61.862.61 1.377 0 1.305-1.351 2.36-3.136 2.36" style="display:inline;fill:none;stroke:#000;stroke-width:.186194;stroke-dasharray:none;stroke-opacity:1" transform="translate(65.084 63.5)scale(7.10505)"/><path style="display:inline;fill:none;stroke:#000;stroke-width:.194285;stroke-dasharray:none;stroke-opacity:1" d="M23.864 9.505c-1.656 1.978-1.869 2.003-2.47 2.497" transform="translate(65.084 63.5)scale(7.10505)"/><path style="display:inline;fill:none;stroke:#000;stroke-width:.186194;stroke-dasharray:none;stroke-opacity:1" d="M15.207 8.177v19.091m-.002.267.005 1.204" transform="translate(65.084 63.5)scale(7.10505)"/></g></g><g/></svg>