<?xml version="1.0" encoding="UTF-8" standalone="no"?>
<!-- Created with Inkscape (http://www.inkscape.org/) -->

<svg
   width="1280"
   height="1280"
   viewBox="0 0 338.66666 338.66666"
   version="1.1"
   id="svg5"
   xml:space="preserve"
   inkscape:version="1.2.2 (732a01da63, 2022-12-09)"
   sodipodi:docname="torrosplit_base.svg"
   xmlns:inkscape="http://www.inkscape.org/namespaces/inkscape"
   xmlns:sodipodi="http://sodipodi.sourceforge.net/DTD/sodipodi-0.dtd"
   xmlns="http://www.w3.org/2000/svg"
   xmlns:svg="http://www.w3.org/2000/svg"><sodipodi:namedview
     id="namedview7"
     pagecolor="#ffffff"
     bordercolor="#000000"
     borderopacity="0.25"
     inkscape:showpageshadow="2"
     inkscape:pageopacity="0.0"
     inkscape:pagecheckerboard="0"
     inkscape:deskcolor="#d1d1d1"
     inkscape:document-units="mm"
     showgrid="false"
     inkscape:zoom="0.70710678"
     inkscape:cx="420.02143"
     inkscape:cy="604.5763"
     inkscape:window-width="1920"
     inkscape:window-height="1001"
     inkscape:window-x="-9"
     inkscape:window-y="-9"
     inkscape:window-maximized="1"
     inkscape:current-layer="SVGRepo_iconCarrier" /><defs
     id="defs2"><inkscape:path-effect
   effect="bspline"
   id="path-effect2464"
   is_visible="true"
   lpeversion="1"
   weight="33.333333"
   steps="2"
   helper_size="0"
   apply_no_weight="true"
   apply_with_weight="true"
   only_selected="false" /><inkscape:path-effect
   effect="bspline"
   id="path-effect2460"
   is_visible="true"
   lpeversion="1"
   weight="33.333333"
   steps="2"
   helper_size="0"
   apply_no_weight="true"
   apply_with_weight="true"
   only_selected="false" />       </defs><g
     inkscape:label="Layer 1"
     inkscape:groupmode="layer"
     id="layer1"><g
       style="display:inline;fill:#b3b3b3"
       id="g937"
       transform="matrix(7.1050541,0,0,7.1050541,63.5,63.499703)"><g
         id="SVGRepo_bgCarrier"
         stroke-width="0"
         style="display:inline;fill:#b3b3b3" /><g
         id="SVGRepo_tracerCarrier"
         stroke-linecap="round"
         stroke-linejoin="round"
         stroke="#01fafe"
         stroke-width="0.59582"
         inkscape:label="OutLineSVGRepo"
         style="display:none;fill:#b3b3b3"> <g
   id="g901"
   style="fill:#b3b3b3"> <g
   id="g899"
   style="fill:#b3b3b3"> <path
   d="M 23.456,9.531 C 24.178,8.179 25.624,4.45 21.917,1.145 24.346,6.661 18.201,8.277 18.201,8.277 l 5.35,5.906 c 0,0 4.848,0.334 6.24,-2.341 -0.878,-0.738 -3.697,-1.613 -6.335,-2.311 z"
   id="path891"
   style="fill:#b3b3b3" /> <path
   d="M 7.876,1.146 C 4.169,4.451 5.615,8.178 6.336,9.532 3.696,10.229 0.878,11.104 0,11.844 c 1.394,2.675 6.24,2.341 6.24,2.341 L 11.59,8.279 C 11.59,8.277 5.447,6.662 7.876,1.146 Z"
   id="path893"
   style="opacity:1;fill:#b3b3b3" /> <path
   d="m 8.024,13.625 c -1.783,3.379 2.885,7.521 3.569,8.247 0.685,0.727 -2.279,1.086 -2.26,2.479 0.012,0.836 0.616,1.684 1.931,2.234 -0.014,-0.103 -0.04,-0.198 -0.04,-0.304 0,-0.206 0.069,-0.399 0.125,-0.596 -0.294,-0.195 -0.477,-0.458 -0.43,-0.726 0.075,-0.426 0.683,-0.676 1.352,-0.556 0.672,0.117 1.157,0.56 1.081,0.985 -0.022,0.128 -0.103,0.232 -0.206,0.324 -0.029,0.082 -0.08,0.164 -0.08,0.246 0,0.66 0.84,1.22 1.832,1.22 0.992,0 1.833,-0.56 1.833,-1.22 0,-0.082 -0.051,-0.166 -0.08,-0.248 -0.104,-0.09 -0.182,-0.194 -0.205,-0.322 -0.075,-0.426 0.41,-0.868 1.076,-0.985 0.674,-0.12 1.281,0.13 1.356,0.556 0.047,0.268 -0.138,0.529 -0.433,0.728 0.057,0.194 0.125,0.39 0.125,0.594 0,0.109 -0.025,0.216 -0.043,0.321 1.322,-0.539 1.93,-1.382 1.93,-2.253 0,-1.448 -3.033,-1.699 -2.253,-2.479 0.78,-0.779 5.346,-4.865 3.563,-8.246 L 18.201,8.275 h -6.61 z m 1.792,1.966 c -0.474,-0.33 -0.482,-1.46 -0.482,-1.46 0,0 0.679,0.083 1.271,0.52 0.594,0.435 0.802,1.604 0.978,2.179 -0.479,-0.786 -1.293,-0.909 -1.767,-1.239 z m 9.372,-0.941 c 0.592,-0.437 1.271,-0.52 1.271,-0.52 0,0 -0.009,1.13 -0.481,1.46 -0.475,0.33 -1.289,0.453 -1.767,1.236 0.174,-0.573 0.383,-1.741 0.977,-2.176 z"
   id="path895"
   style="fill:#b3b3b3" /> <path
   d="m 16.957,25.263 c 0.137,0.214 0.219,0.449 0.219,0.701 0,0.92 -1.019,1.664 -2.277,1.664 -1.258,0 -2.277,-0.744 -2.277,-1.664 0,-0.252 0.082,-0.487 0.22,-0.701 -0.233,-0.104 -0.42,-0.225 -0.56,-0.355 -0.381,0.389 -0.61,0.862 -0.61,1.377 0,1.305 1.443,2.361 3.228,2.361 1.786,0 3.229,-1.057 3.229,-2.361 0,-0.515 -0.23,-0.988 -0.611,-1.377 -0.143,0.13 -0.329,0.253 -0.561,0.355 z"
   id="path897"
   style="fill:#b3b3b3" /> </g> </g> </g><g
         id="SVGRepo_iconCarrier"
         style="display:inline;fill:none;stroke-width:0.18619375;stroke-dasharray:none;stroke:#000000;stroke-opacity:1">  <g
   id="g2814"
   inkscape:label="leftside"
   transform="translate(-0.3723875)"><path
     d="M 6.3415577,9.5342231 C 3.7015577,10.231223 0.878,11.104 0,11.844 c 1.394,2.675 7.088198,2.574134 7.088198,2.574134 l 1.6849519,-2.485535 m 0.062371,-0.110272 2.4513331,-3.6160538 c 0,-0.002 -5.0053042,-1.5390592 -2.5763042,-7.0550592 -3.707,3.305 -4.5936245,6.665842 0.2356082,10.651957"
     id="path906"
     style="fill:none;stroke:#000000;stroke-width:0.186194;stroke-dasharray:none;stroke-opacity:1"
     sodipodi:nodetypes="cccccccc" /><path
     d="M 14.810128,8.2705539 11.591,8.275 8.024,13.625 c -1.783,3.379 2.885,7.521 3.569,8.247 0.685,0.727 -2.279,1.086 -2.26,2.479 0.012,0.836 0.616,1.684 1.931,2.234 -0.014,-0.103 -0.04,-0.198 -0.04,-0.304 0,-0.206 0.069,-0.399 0.125,-0.596 -0.294,-0.195 -0.477,-0.458 -0.43,-0.726 0.075,-0.426 0.683,-0.676 1.352,-0.556 0.672,0.117 1.157,0.56 1.081,0.985 -0.022,0.128 -0.115197,0.214949 -0.206,0.324 -0.0492,0.06512 -0.08,0.164 -0.08,0.246 0,0.66 0.749896,1.216709 1.741896,1.216709 M 9.816,15.591 c -0.474,-0.33 -0.482,-1.46 -0.482,-1.46 0,0 0.679,0.083 1.271,0.52 0.594,0.435 0.802,1.604 0.978,2.179 -0.479,-0.786 -1.293,-0.909 -1.767,-1.239 z"
     id="path908"
     style="fill:none;stroke:#000000;stroke-width:0.186194;stroke-dasharray:none;stroke-opacity:1"
     sodipodi:nodetypes="ccccccscccccscscccs" /><path
     d="m 14.862925,27.628 c -1.258,0 -2.240925,-0.744 -2.240925,-1.664 0,-0.252 0.082,-0.487 0.22,-0.701 -0.233,-0.104 -0.42,-0.225 -0.56,-0.355 -0.381,0.389 -0.61,0.862 -0.61,1.377 0,1.305 1.351513,2.360718 3.136513,2.360718"
     id="path910"
     style="fill:none;stroke:#000000;stroke-width:0.186194;stroke-dasharray:none;stroke-opacity:1"
     sodipodi:nodetypes="csccsc" /><path
     style="opacity:1;fill:none;stroke:#000000;stroke-width:0.194285;stroke-dasharray:none;stroke-opacity:1"
     d="M 6.2416443,9.5050739 C 7.8976136,11.483272 8.1100402,11.508126 8.7115245,12.001736"
     id="path2675"
     sodipodi:nodetypes="cc" /><path
     style="opacity:1;fill:none;stroke:#000000;stroke-width:0.186194;stroke-dasharray:none;stroke-opacity:1"
     d="M 14.898,8.177457 V 27.268104"
     id="path2733"
     sodipodi:nodetypes="cc" /><path
     style="opacity:1;fill:none;stroke:#000000;stroke-width:0.186194;stroke-dasharray:none;stroke-opacity:1"
     d="m 14.9,27.53487 -0.0045,1.204227"
     id="path2735"
     sodipodi:nodetypes="cc" /></g><g
   id="g2806"
   inkscape:label="rightside"
   transform="translate(0.2234325)"><path
     d="m 23.763738,9.5342309 c 2.64,0.6970041 5.463558,1.5697811 6.341558,2.3097811 -1.394,2.675 -7.088198,2.574134 -7.088198,2.574134 l -1.684952,-2.485535 m -0.06237,-0.110272 -2.451333,-3.6160666 c 0,-0.002 5.005304,-1.5390683 2.576304,-7.0550683 3.707,3.305 4.593625,6.6658483 -0.235608,10.6519789"
     id="path906-9"
     style="display:inline;fill:none;stroke:#000000;stroke-width:0.186194;stroke-dasharray:none;stroke-opacity:1"
     sodipodi:nodetypes="cccccccc" /><path
     d="m 15.295168,8.2705539 3.219128,0.0044 3.567,5.3500121 c 1.783,3.379 -2.885,7.521 -3.569,8.247 -0.685,0.727 2.279,1.086 2.26,2.479 -0.012,0.836 -0.616,1.684 -1.931,2.234 0.014,-0.103 0.04,-0.198 0.04,-0.304 0,-0.206 -0.069,-0.399 -0.125,-0.596 0.294,-0.195 0.477,-0.458 0.43,-0.726 -0.075,-0.426 -0.683,-0.676 -1.352,-0.556 -0.672,0.117 -1.157,0.56 -1.081,0.985 0.022,0.128 0.115197,0.214949 0.206,0.324 0.0492,0.06512 0.08,0.164 0.08,0.246 0,0.66 -0.749896,1.216709 -1.741896,1.216709 m 4.991896,-11.583663 c 0.474,-0.33 0.482,-1.46 0.482,-1.46 0,0 -0.679,0.083 -1.271,0.52 -0.594,0.435 -0.802,1.604 -0.978,2.179 0.479,-0.786 1.293,-0.909 1.767,-1.239 z"
     id="path908-7"
     style="display:inline;fill:none;stroke:#000000;stroke-width:0.186194;stroke-dasharray:none;stroke-opacity:1"
     sodipodi:nodetypes="ccccccscccccscscccs" /><path
     d="m 15.242371,27.628012 c 1.258,0 2.240925,-0.744 2.240925,-1.664 0,-0.252 -0.082,-0.487 -0.22,-0.701 0.233,-0.104 0.42,-0.225 0.56,-0.355 0.381,0.389 0.61,0.862 0.61,1.377 0,1.305 -1.351513,2.360718 -3.136513,2.360718"
     id="path910-3"
     style="display:inline;fill:none;stroke:#000000;stroke-width:0.186194;stroke-dasharray:none;stroke-opacity:1"
     sodipodi:nodetypes="csccsc" /><path
     style="display:inline;fill:none;stroke:#000000;stroke-width:0.194285;stroke-dasharray:none;stroke-opacity:1"
     d="m 23.863652,9.5050819 c -1.65597,1.9782021 -1.868396,2.0030561 -2.46988,2.4966661"
     id="path2675-3"
     sodipodi:nodetypes="cc" /><path
     style="display:inline;fill:none;stroke:#000000;stroke-width:0.186194;stroke-dasharray:none;stroke-opacity:1"
     d="M 15.207296,8.1774559 V 27.268116"
     id="path2733-1"
     sodipodi:nodetypes="cc" /><path
     style="display:inline;fill:none;stroke:#000000;stroke-width:0.186194;stroke-dasharray:none;stroke-opacity:1"
     d="m 15.205296,27.534882 0.0045,1.204227"
     id="path2735-4"
     sodipodi:nodetypes="cc" /></g></g></g></g><g
     inkscape:groupmode="layer"
     id="layer2"
     inkscape:label="Layer 2" /></svg>
